<?xml version="1.0" encoding="utf-8"?>
<!-- Generator: Adobe Illustrator 25.4.1, SVG Export Plug-In . SVG Version: 6.00 Build 0)  -->
<svg version="1.1" id="レイヤー_1" xmlns="http://www.w3.org/2000/svg" xmlns:xlink="http://www.w3.org/1999/xlink" x="0px"
	 y="0px" viewBox="0 0 640 220" style="enable-background:new 0 0 640 220;" xml:space="preserve">
<style type="text/css">
	.st0{fill:#040308;}
	.st1{fill:#B7DCB8;}
	.st2{fill:#FFFFFF;}
</style>
<g>
	<rect class="st0" width="640" height="220"/>
</g>
<g id="_x36_2">
	<path class="st1" d="M347.9,108.4v91.4h81.3V41.7H210.8v158.1h81.3v-91.4C292.1,108.4,347.9,108.4,347.9,108.4z M396.3,55.9h19.4
		v19.4h-19.4V55.9z M396.3,85.3h19.4v19.4h-19.4V85.3z M396.3,114.7h19.4v19.4h-19.4V114.7z M366.9,55.9h19.4v19.4h-19.4V55.9z
		 M366.9,85.3h19.4v19.4h-19.4V85.3z M366.9,114.7h19.4v19.4h-19.4V114.7z M243.8,134.2h-19.4v-19.4h19.4V134.2z M243.8,104.8h-19.4
		V85.3h19.4V104.8z M243.8,75.4h-19.4V55.9h19.4V75.4z M273.1,134.2h-19.4v-19.4h19.4V134.2z M273.1,104.8h-19.4V85.3h19.4V104.8z
		 M273.1,75.4h-19.4V55.9h19.4V75.4z"/>
	<rect x="198.5" y="19.8" class="st1" width="243" height="15.6"/>
</g>
<g>
	<path class="st2" d="M105.3,92.4c2,0,3.6,0.6,5,1.9c1.4,1.2,2.2,2.7,2.2,4.6c0,1.9-0.7,3.5-2.2,4.7c-1.4,1.2-3.1,1.9-5,1.9
		c-1.9,0-3.6-0.6-5-1.9c-1.4-1.2-2.2-2.8-2.2-4.7c0-1.9,0.7-3.4,2.2-4.6C101.7,93,103.4,92.4,105.3,92.4z"/>
	<path class="st2" d="M122.7,67.8c0-3.7-1.5-6.9-4.6-9.4c-3.2-2.7-7.3-4-12.3-4c-5.7,0-10.3,1.8-13.8,5.4c-2.6,2.7-3.9,5.1-3.9,7.3
		c0,1.4,0.4,2.5,1.3,3.3c0.9,0.9,1.9,1.3,3.2,1.3c1.7,0,3.1-0.9,4.4-2.7c1.4-2.1,2.4-3.4,3.2-4c1.4-1.2,3.3-1.8,5.6-1.8
		c5.1,0,7.6,1.7,7.6,5c0,1.4-1.1,2.8-3.2,4c-2,1-4,2.1-6.1,3.2c-2.1,1.6-3.1,3.5-3.1,5.8v3.1c0,1.4,0.5,2.6,1.5,3.4
		c0.8,0.6,1.9,1,3.3,1c1.2,0,2.2-0.4,3.1-1.1c0.9-0.8,1.4-1.9,1.4-3.3c0-0.9,0.1-1.6,0.2-1.9c0.2-0.5,0.9-1,2.1-1.6
		c4-2.3,6.3-3.8,7-4.5C121.7,74.5,122.7,71.6,122.7,67.8z"/>
	<path class="st2" d="M131.7,117.2l2.5,2.4c6.2,5.9,17,10.8,23.7,10.8v9.3c-9.3,0-20.4-5.4-27.6-11.2c-7.9,3.9-16.6,5.9-25.5,5.9
		c-31.6,0-57.4-25.7-57.4-57.4c0-31.6,25.7-57.4,57.4-57.4c31.6,0,57.4,25.7,57.4,57.4c0,10.6-2.9,21-8.5,30l-8-4.9
		c4.6-7.5,7.1-16.2,7.1-25.1c0-26.5-21.6-48-48-48s-48,21.6-48,48s21.6,48,48,48c8.4,0,16.6-2.2,23.8-6.3L131.7,117.2z"/>
</g>
<g>
	<g>
		<path class="st2" d="M531.2,112.3c2.1,0,3.8,0.7,5,2c1.2,1.3,1.7,3.2,1.6,5.6l-2.2,26.4c-0.3,2.4-1.9,3.6-4.8,3.6
			c-2.5,0-3.9-1.2-4.2-3.6l-2.1-26.3C524.2,114.8,526.5,112.3,531.2,112.3z"/>
		<path class="st2" d="M525.7,155.4c1.5-1.3,3.3-2,5.3-2c2.1,0,3.9,0.6,5.5,2c1.6,1.3,2.4,2.9,2.4,4.9s-0.8,3.7-2.4,5
			c-1.6,1.3-3.4,2-5.5,2c-2,0-3.8-0.7-5.3-2c-1.6-1.3-2.3-2.9-2.3-5C523.4,158.3,524.2,156.6,525.7,155.4z"/>
	</g>
	<path class="st2" d="M505.2,177.2l-2.5,2.4c-6.2,5.9-17,10.8-23.7,10.8v9.3c9.3,0,20.4-5.4,27.6-11.2c7.9,3.9,16.6,5.9,25.5,5.9
		c31.6,0,57.4-25.7,57.4-57.4c0-31.6-25.7-57.4-57.4-57.4c-31.6,0-57.4,25.7-57.4,57.4c0,10.6,2.9,21,8.5,30l8-4.9
		c-4.6-7.5-7.1-16.2-7.1-25.1c0-26.5,21.6-48,48-48s48,21.6,48,48s-21.6,48-48,48c-8.4,0-16.6-2.2-23.8-6.3L505.2,177.2z"/>
</g>
</svg>
