<?xml version="1.0" encoding="utf-8"?>
<!-- Generator: Adobe Illustrator 25.4.1, SVG Export Plug-In . SVG Version: 6.00 Build 0)  -->
<svg version="1.1" id="レイヤー_1" xmlns="http://www.w3.org/2000/svg" xmlns:xlink="http://www.w3.org/1999/xlink" x="0px"
	 y="0px" viewBox="0 0 640 220" style="enable-background:new 0 0 640 220;" xml:space="preserve">
<style type="text/css">
	.st0{fill:#040308;}
	.st1{fill:#FFFFFF;}
	.st2{fill:#94B3DE;}
</style>
<rect class="st0" width="640" height="220"/>
<g>
	<g>
		<path class="st1" d="M133.6,58.7C133.6,39,117.7,23,98,23S62.3,39,62.3,58.7c0,19.7,16,35.7,35.7,35.7S133.6,78.4,133.6,58.7z"/>
		<path class="st1" d="M150.7,140.6c0-22.1-17.9-39.9-39.9-39.9H85.2c-22.1,0-39.9,17.9-39.9,39.9V198h105.4L150.7,140.6
			L150.7,140.6z"/>
	</g>
	<path class="st2" d="M335.2,58.7c0-19.7-16-35.7-35.7-35.7c-19.7,0-35.7,16-35.7,35.7c0,19.7,16,35.7,35.7,35.7
		C319.2,94.4,335.2,78.4,335.2,58.7z"/>
	<path class="st2" d="M246.8,140.6V198h105.4v-57.5c0-22.1-17.9-39.9-39.9-39.9h-25.5C264.7,100.6,246.8,118.5,246.8,140.6z"/>
	<path class="st2" d="M457.4,58.7c0-19.7-16-35.7-35.7-35.7C402,23,386,39,386,58.7c0,19.7,16,35.7,35.7,35.7
		C441.4,94.4,457.4,78.4,457.4,58.7z"/>
	<path class="st2" d="M369,140.6V198h105.4v-57.5c0-22.1-17.9-39.9-39.9-39.9H409C386.9,100.6,369,118.5,369,140.6z"/>
	<path class="st2" d="M579.6,58.7c0-19.7-16-35.7-35.7-35.7c-19.7,0-35.7,16-35.7,35.7c0,19.7,16,35.7,35.7,35.7
		C563.6,94.4,579.6,78.4,579.6,58.7z"/>
	<path class="st2" d="M556.6,100.6h-25.5c-22.1,0-39.9,17.9-39.9,39.9V198h105.4v-57.5C596.6,118.5,578.7,100.6,556.6,100.6z"/>
</g>
<g>
	<path class="st1" d="M175.5,119.7c1.6-2.8,3.7-5.2,6.1-7c1.9-1.4,4-2.1,6.4-2.1c3,0,5.4,0.9,11.9,4.5c5.8,3.2,8.2,4.1,10.3,4.1
		c2.7,0,5.1-1.5,8-4.9l0.7,0.4c-1.2,2.6-3.2,5-5.8,7.2c-1.9,1.5-3.7,2.2-6.1,2.2c-3.1,0-5.7-1-11.3-4.1c-6.2-3.5-9-4.7-11.4-4.7
		c-2.4,0-5.7,2-8.1,4.9L175.5,119.7z"/>
</g>
<g>
	<path d="M66.7,147.8c2.2-2.9,5.9-4.5,10.2-4.5c4.2,0,7.9,1.6,10.1,4.5c2.1,2.6,3.2,6.3,3.2,10.3c0,4-1.1,7.8-3.2,10.3
		c-2.3,2.9-5.9,4.5-10.1,4.5c-4.2,0-7.9-1.6-10.2-4.5c-2.1-2.6-3.2-6.3-3.2-10.3S64.6,150.4,66.7,147.8z M70.9,168.3
		c1.2,2.4,3.2,3.6,5.9,3.6c2.7,0,4.7-1.2,5.9-3.6c1.3-2.6,1.9-5.7,1.9-10.2c0-4.4-0.6-7.6-1.9-10.2c-1.3-2.4-3.2-3.6-5.9-3.6
		c-2.7,0-4.7,1.2-5.9,3.6c-1.3,2.6-1.9,5.8-1.9,10.2C69,162.5,69.6,165.7,70.9,168.3z"/>
	<path d="M101.8,167.4c0,3.5,0.3,3.8,3.4,4v1H93.5v-1c3.1-0.1,3.4-0.5,3.4-4v-18.5c0-3.5-0.3-3.8-3.3-4v-1h11.5v1
		c-3,0.1-3.3,0.5-3.3,4v10.3l7.9-8.8c1.7-1.9,2.4-3,2.4-3.9c0-1.1-0.7-1.5-2.8-1.6v-1h10.5v1c-2.7,0.2-4.6,1.5-8.2,5.5l-3.8,4.1
		l8.4,13.1c1.6,2.6,2.9,3.6,4.7,3.8v0.9h-8c-0.5-1.1-0.5-1.1-2.1-3.7l-6.3-10.6l-2.7,3L101.8,167.4L101.8,167.4z"/>
	<path d="M126.6,163.8c-0.2-6.1-0.6-9.2-2.2-16.6c-0.1-0.6-0.2-1.4-0.2-1.8c0-1.5,1-2.2,3.2-2.2c2.2,0,3.2,0.7,3.2,2.2
		c0,0.8,0,0.8-0.8,4.6c-0.9,4.3-1.4,8.8-1.6,13.8L126.6,163.8L126.6,163.8z M130.5,169.7c0,1.7-1.4,3.2-3.2,3.2
		c-1.7,0-3.2-1.4-3.2-3.2c0-1.7,1.4-3.2,3.2-3.2C129.2,166.5,130.5,167.9,130.5,169.7z"/>
</g>
</svg>
