<?xml version="1.0" encoding="utf-8"?>
<!-- Generator: Adobe Illustrator 25.4.1, SVG Export Plug-In . SVG Version: 6.00 Build 0)  -->
<svg version="1.1" id="レイヤー_1" xmlns="http://www.w3.org/2000/svg" xmlns:xlink="http://www.w3.org/1999/xlink" x="0px"
	 y="0px" viewBox="0 0 640 220" style="enable-background:new 0 0 640 220;" xml:space="preserve">
<style type="text/css">
	.st0{fill:#040308;}
	.st1{fill:#D8BCD9;}
	.st2{fill:#FFFFFF;}
</style>
<rect class="st0" width="640" height="220"/>
<g>
	<path class="st1" d="M408.7,66.7L379.3,51l1,4.3l1,4.3l6.4,26.3l0.8,3.3l0.8,3.3l0.5,2.2L320,131.7l-74-39.3l-3.1-1.6l-0.4-1.7
		l-0.8-3.3l-2-8.2l120.8-29.1l4.8-1.2l4.8-1.2l-48.7-25.9c-1-0.5-2.1-0.5-3.1,0l-87.2,46.3c-1.1,0.6-1.8,1.7-1.8,2.9v19.6v39.2v68.4
		c0,1.8,1.5,3.3,3.3,3.3h174.4c1.8,0,3.3-1.5,3.3-3.3v-68.4V89.2V69.6C410.5,68.4,409.8,67.2,408.7,66.7z"/>
</g>
<g>
	<path class="st2" d="M53.6,107.3c29.5,2.9,32.1,13.8,35.1,45.2c0.1,0.7,0.6,1.2,1.3,1.2s1.2-0.5,1.3-1.2c3-31.3,5.6-42.3,35.1-45.2
		c0.7-0.1,1.2-0.6,1.2-1.3s-0.5-1.2-1.2-1.3C96.4,101.8,94.2,92.8,91.2,62c-0.1-0.7-0.6-1.2-1.3-1.2c-0.7,0-1.2,0.5-1.3,1.2
		c-3,30.8-5.2,39.8-35.1,42.7c-0.7,0.1-1.2,0.6-1.2,1.3S52.9,107.2,53.6,107.3z"/>
	<path class="st2" d="M134.6,137.5c0-0.4-0.4-0.7-0.8-0.7s-0.7,0.3-0.8,0.7c-1.8,18.2-3.1,23.6-20.8,25.3c-0.4,0-0.7,0.4-0.7,0.8
		c0,0.4,0.3,0.7,0.7,0.8c17.4,1.7,19,8.2,20.8,26.7c0,0.4,0.4,0.7,0.8,0.7s0.7-0.3,0.8-0.7c1.8-18.5,3.3-25,20.8-26.7
		c0.4,0,0.7-0.4,0.7-0.8s-0.3-0.7-0.7-0.8C137.6,161,136.3,155.7,134.6,137.5z"/>
</g>
<g>
	<path class="st2" d="M576.8,69.3c-29.5,2.9-32.1,13.8-35.1,45.2c-0.1,0.7-0.6,1.2-1.3,1.2s-1.2-0.5-1.3-1.2
		c-3-31.3-5.6-42.3-35.1-45.2c-0.7-0.1-1.2-0.6-1.2-1.3s0.5-1.2,1.2-1.3c29.9-2.9,32.1-11.9,35.1-42.7c0.1-0.7,0.6-1.2,1.3-1.2
		c0.7,0,1.2,0.5,1.3,1.2c3,30.8,5.2,39.8,35.1,42.7c0.7,0.1,1.2,0.6,1.2,1.3S577.5,69.2,576.8,69.3z"/>
	<path class="st2" d="M495.8,99.5c0-0.4,0.4-0.7,0.8-0.7s0.7,0.3,0.8,0.7c1.8,18.2,3.1,23.6,20.8,25.3c0.4,0,0.7,0.4,0.7,0.8
		c0,0.4-0.3,0.7-0.7,0.8c-17.4,1.7-19,8.2-20.8,26.7c0,0.4-0.4,0.7-0.8,0.7s-0.7-0.3-0.8-0.7c-1.8-18.5-3.3-25-20.8-26.7
		c-0.4,0-0.7-0.4-0.7-0.8s0.3-0.7,0.7-0.8C492.8,123,494.1,117.7,495.8,99.5z"/>
</g>
<g>
	<path class="st2" d="M315.6,102.4c-0.2,0.9-0.6,1.1-1.5,1.1h-19.7c-0.5,0-0.8-0.5-0.8-0.9c0-2.1,2.5-0.3,2.5-3.1v-22
		c0-0.9-0.4-1.7-1.7-1.7c-0.6,0-0.8-0.6-0.8-1.1s0.3-1.1,0.8-1.1H314c0.8,0,1.1,0.3,1.2,0.9l0.6,5.8c0,0.5-0.4,0.9-1,0.9
		c-0.4,0-0.8-0.2-0.9-0.8c-0.7-3.5-1.7-4.5-6-4.5h-7.3c-1.1,0-1.5,0.8-1.5,1.9v9h6.8c2.5,0,3-1.3,3-3.1c0-0.6,0.6-0.9,1.1-0.9
		c0.6,0,1.1,0.3,1.1,0.9V92c0,0.6-0.5,0.9-1,0.9S309,92.5,309,92c0-1.5-0.4-3.1-3-3.1h-6.8v10.8c0,0.9,0.7,1.6,1.5,1.6h7.8
		c4,0,5.1-0.8,6.3-4.5c0.2-0.5,0.6-0.7,1-0.7c0.5,0,1,0.4,1,1C316.6,97.3,316,100.6,315.6,102.4z"/>
	<path class="st2" d="M342.9,103.5H335c-0.7,0-0.9-0.5-0.9-1s0.3-1.1,0.8-1.1c1.1,0,1.2-0.4,1.2-0.7c0-0.2-0.1-0.5-0.5-1l-4.4-5.1
		l-4.5,5.1c-0.4,0.4-0.5,0.7-0.5,0.9c0,1.3,2.2,0.1,2.2,1.9c0,0.5-0.3,1-1,1h-7c-0.7,0-1-0.5-1-1c0-0.5,0.3-1.1,0.9-1.1
		c1.7,0,2.8-0.9,4.5-2.8l5.1-5.7l-4.3-5c-1.9-2.2-2.8-3-4.5-3c-0.7,0-0.9-0.6-0.9-1.1c0-0.6,0.3-1.1,0.9-1.1h7.8c0.7,0,1,0.5,1,1.1
		c0,0.5-0.3,1.1-0.8,1.1c-1,0-1.4,0.5-1.4,0.8c0,0.2,0.1,0.5,0.5,1l3.6,4.2l3.6-4.1c0.4-0.5,0.5-0.7,0.5-1c0-0.3-0.3-0.8-1.3-0.8
		c-0.5,0-0.8-0.5-0.8-1c0-0.5,0.3-1.1,1-1.1h7c0.7,0,1,0.5,1,1.1c0,0.5-0.3,1-0.9,1c-1.7,0-2.8,1-4.5,2.8l-4.2,4.7l5.1,6
		c1.8,2.2,2.8,3,4.8,3c0.6,0,0.9,0.6,0.9,1.1S343.6,103.5,342.9,103.5z"/>
</g>
</svg>
