<?xml version="1.0" encoding="utf-8"?>
<!-- Generator: Adobe Illustrator 25.4.1, SVG Export Plug-In . SVG Version: 6.00 Build 0)  -->
<svg version="1.1" id="レイヤー_1" xmlns="http://www.w3.org/2000/svg" xmlns:xlink="http://www.w3.org/1999/xlink" x="0px"
	 y="0px" viewBox="0 0 400 400" style="enable-background:new 0 0 400 400;" xml:space="preserve">
<style type="text/css">
	.st0{fill:#B7DCB8;}
	.st1{fill:#FFFFFF;}
	.st2{fill:#00072B;}
</style>
<rect class="st0" width="400" height="400"/>
<rect x="0" class="st1" width="400" height="80"/>
<g>
	<path class="st2" d="M114.396,51.608H94.271v-3.822c11.388-9.867,14.274-13.144,14.274-17.94c0-2.77-1.443-4.798-5.109-4.798
		c-1.443,0-2.886,0.312-4.096,0.819l-0.312,5.499h-3.588v-7.449c2.769-1.404,6.162-2.262,8.814-2.262
		c6.123,0,8.892,3.081,8.892,7.722c0,5.539-2.496,8.775-14.04,18.565h15.288V51.608z"/>
	<path class="st2" d="M124.73,48.917c0,1.716-1.404,3.081-3.12,3.081c-1.756,0-3.12-1.365-3.12-3.081
		c0-1.755,1.364-3.159,3.12-3.159C123.326,45.758,124.73,47.162,124.73,48.917z"/>
	<path class="st2" d="M156.281,35.384l-5.85-0.156h-7.723l-5.889,0.156v-3.276c-1.756,1.287-3.744,2.535-6.007,3.861
		c-0.779-1.092-1.833-2.067-2.886-2.887c7.8-3.978,12.091-7.604,15.444-12.48c0.546-0.818,0.897-1.521,1.209-2.496
		c3.979,0.741,4.603,0.937,4.603,1.639c0,0.312-0.273,0.546-0.897,0.624c4.914,6.24,9.478,8.854,17.122,11.583
		c-0.937,0.897-1.989,2.146-2.77,3.472c-2.379-1.093-4.485-2.146-6.357-3.315V35.384z M144.27,42.716
		c-1.054,2.301-2.185,4.603-3.394,6.825c4.603-0.234,9.204-0.624,13.807-0.975c-1.092-1.132-2.262-2.185-3.51-3.276l2.729-1.95
		c3.822,3.159,6.396,6.045,9.321,9.399l-3.081,2.223c-1.014-1.325-1.95-2.496-2.886-3.588c-9.595,1.015-16.381,1.6-23.947,2.146
		c-0.233,0.818-0.546,1.248-0.896,1.248c-0.741,0-0.897-0.273-2.302-4.953c2.106,0.078,2.38,0.078,3.589,0.039
		c0.857-0.039,1.95-0.078,3.159-0.117c1.209-2.302,2.301-4.642,3.275-7.021h-5.07l-6.278,0.156v-3.588l6.278,0.155h23.051
		l6.278-0.155v3.588l-6.278-0.156H144.27z M155.853,31.834c-3.744-2.301-6.942-5.382-9.672-8.853
		c-2.535,3.393-5.577,6.356-9.01,8.853l5.538,0.156h7.723L155.853,31.834z"/>
	<path class="st2" d="M172.271,21.889c0-0.857,0-1.131-0.351-2.847c4.329,0.351,4.953,0.468,4.953,1.209
		c0,0.39-0.351,0.585-1.248,0.819v7.644h0.624l3.783-0.116v3.198l-3.783-0.117h-0.624v9.165c1.248-0.507,2.574-1.092,4.134-1.833
		c-0.039,1.131-0.078,1.989,0.039,3.042c-2.574,1.365-5.694,2.691-9.438,4.251c-0.039,0.897-0.194,1.287-0.701,1.287
		c-0.586,0-0.819-0.312-2.848-3.783c1.521-0.312,2.106-0.468,3.003-0.779c0.858-0.273,1.639-0.547,2.457-0.858V31.679h-0.857
		l-3.979,0.117v-3.198l3.979,0.116h0.857V21.889z M185.024,42.911c-1.6,1.521-3.472,2.651-6.006,3.705
		c-0.663-0.937-1.21-1.561-2.106-2.224c4.251-1.638,6.436-3.393,8.112-6.396l-6.045,0.155v-3.198l6.24,0.156h12.129l6.24-0.156
		v3.198l-6.24-0.155h-8.736c-0.39,0.701-0.819,1.442-1.248,2.105h9.984l4.642-0.156l0.194,0.156l-0.155,3.822
		c-0.117,3.198-0.195,5.031-0.508,6.63c-0.662,3.354-2.145,4.291-5.421,4.291h-1.521c-0.312-1.209-1.093-2.73-1.872-3.979
		c1.403,0.195,2.729,0.234,3.86,0.234c1.015,0,1.326-0.352,1.561-1.6c0.234-1.17,0.351-3.588,0.468-6.591h-1.404
		c-2.379,6.474-6.591,10.842-15.678,12.246c-0.508-1.053-1.054-1.833-1.989-2.769c7.254-0.819,11.935-3.706,14.118-9.478h-2.34
		c-3.159,4.953-5.968,6.513-12.013,8.112c-0.585-1.093-1.17-1.833-2.145-2.652c4.562-0.741,8.15-2.146,10.491-5.46H185.024z
		 M182.724,33.59l-0.195-0.195l0.156-4.563V25.36l-0.156-4.681l0.195-0.194l4.602,0.155h7.488l4.681-0.155l0.194,0.194l-0.155,4.681
		v3.51l0.155,4.524l-0.194,0.195l-4.681-0.156h-7.488L182.724,33.59z M196.101,25.711v-2.34h-10.062v2.34H196.101z M196.101,28.246
		h-10.062v2.496h10.062V28.246z"/>
	<path class="st2" d="M239.313,46.577c-6.123-3.9-12.363-8.541-18.564-13.456c-0.858-0.663-1.092-0.857-1.443-0.857
		c-0.351,0-0.702,0.272-1.404,0.975c-2.262,2.263-4.641,4.875-7.839,8.347c-2.809-2.77-3.237-3.394-3.237-3.861
		c0-0.312,0.156-0.507,0.468-0.507c0.312,0,0.585,0.078,1.015,0.312c2.34-2.301,5.226-5.187,7.566-7.488
		c1.131-1.131,2.027-1.56,3.393-1.56c1.443,0,2.379,0.507,3.472,1.404c6.435,5.226,12.441,9.243,18.721,13.182L239.313,46.577z"/>
	<path class="st2" d="M250.583,38.27c-1.092,1.287-2.301,2.496-3.666,3.744c-0.741-0.936-1.443-1.521-2.652-2.223
		c3.433-3.12,6.357-6.592,7.801-9.243c0.624-1.132,0.897-1.911,1.131-2.77c3.861,1.599,4.134,1.794,4.134,2.418
		c0,0.39-0.507,0.624-1.403,0.546c-0.78,1.326-1.561,2.535-2.379,3.744c1.325,0.234,1.599,0.468,1.599,0.819
		c0,0.39-0.312,0.546-1.248,0.975v18.643h-3.588l0.155-6.278v-6.163L250.583,38.27z M253.001,19.471
		c3.783,1.717,3.861,2.028,3.861,2.535s-0.39,0.585-1.365,0.585c-2.184,2.457-5.109,4.485-8.307,6.396
		c-0.586-1.053-1.326-1.794-2.419-2.535c2.691-1.482,5.031-3.042,6.436-4.368C252.299,21.031,252.533,20.68,253.001,19.471z
		 M274.335,43.769l0.156,7.06c0,3.354-1.17,4.095-6.045,4.095h-1.443c-0.273-1.209-0.819-2.496-1.755-3.821
		c2.028,0.194,3.627,0.272,4.524,0.272c0.857,0,1.014-0.156,1.014-0.975V34.682h-7.41l-5.109,0.156v-3.511l5.109,0.156h12.675
		l5.109-0.156v3.511l-5.109-0.156h-1.716V43.769z M260.802,24.658v-3.471l5.109,0.155h7.878l5.109-0.155v3.471l-5.109-0.156h-7.878
		L260.802,24.658z"/>
	<path class="st2" d="M303.938,53.675c-5.383-6.201-9.399-9.672-15.172-14.196c-0.897-0.702-1.287-1.404-1.287-2.379
		c0-0.936,0.39-1.716,1.248-2.574c4.953-4.836,9.243-9.556,12.013-13.065c-0.507-0.741-0.624-1.014-0.624-1.248
		c0-0.312,0.194-0.546,0.624-0.546c0.39,0,1.403,0.468,4.68,2.652c-4.992,5.733-8.619,9.438-13.183,13.884
		c-0.39,0.391-0.507,0.547-0.507,0.78c0,0.234,0.156,0.391,0.468,0.624c5.227,3.979,9.399,7.488,14.821,13.104L303.938,53.675z"/>
</g>
<g id="_x36_2">
	<path class="st2" d="M232.506,230.481v106.589h94.872V152.618H72.623v184.451h94.871V230.481H232.506z M288.96,169.249h22.678
		v22.678H288.96V169.249z M288.96,203.538h22.678v22.678H288.96V203.538z M288.96,237.828h22.678v22.678H288.96V237.828z
		 M254.677,169.249h22.678v22.678h-22.678V169.249z M254.677,203.538h22.678v22.678h-22.678V203.538z M254.677,237.828h22.678
		v22.678h-22.678V237.828z M111.047,260.506H88.368v-22.678h22.678V260.506z M111.047,226.217H88.368v-22.678h22.678V226.217z
		 M111.047,191.927H88.368v-22.678h22.678V191.927z M145.33,260.506h-22.678v-22.678h22.678V260.506z M145.33,226.217h-22.678
		v-22.678h22.678V226.217z M145.33,191.927h-22.678v-22.678h22.678V191.927z"/>
	<rect x="58.26" y="127.069" class="st2" width="283.481" height="18.143"/>
</g>
<g>
</g>
<g>
</g>
<g>
</g>
<g>
</g>
<g>
</g>
<g>
</g>
<g>
</g>
<g>
</g>
<g>
</g>
<g>
</g>
<g>
</g>
<g>
</g>
<g>
</g>
<g>
</g>
<g>
</g>
</svg>
