<?xml version="1.0" encoding="utf-8"?>
<!-- Generator: Adobe Illustrator 25.4.1, SVG Export Plug-In . SVG Version: 6.00 Build 0)  -->
<svg version="1.1" id="レイヤー_1" xmlns="http://www.w3.org/2000/svg" xmlns:xlink="http://www.w3.org/1999/xlink" x="0px"
	 y="0px" viewBox="0 0 400 400" style="enable-background:new 0 0 400 400;" xml:space="preserve">
<style type="text/css">
	.st0{fill:#D8BCD9;}
	.st1{fill:#FFFFFF;}
	.st2{fill:#00072B;}
</style>
<rect class="st0" width="400" height="400"/>
<rect x="0" class="st1" width="400" height="80"/>
<g>
	<path class="st2" d="M126.915,36.202c3.627,0.547,6.669,2.926,6.669,7.255c0,5.148-3.939,8.502-10.452,8.502
		c-6.007,0-9.321-2.457-9.36-7.761h4.484c0.039,2.457,1.443,4.407,5.266,4.407c3.666,0,5.421-1.756,5.421-4.953
		c0-3.198-2.184-5.344-7.566-5.344h-2.808l1.092-3.588h1.794c4.524,0,6.592-1.6,6.592-5.227c0-2.808-1.911-4.407-5.07-4.407
		c-1.561,0-2.809,0.273-4.018,0.741l-0.351,4.563h-3.394v-6.708c2.652-1.248,5.499-1.872,8.542-1.872
		c5.46,0,8.736,2.651,8.736,7.098c0,4.29-2.691,6.396-5.577,7.216V36.202z"/>
	<path class="st2" d="M144.23,48.917c0,1.716-1.404,3.081-3.12,3.081c-1.756,0-3.12-1.365-3.12-3.081
		c0-1.755,1.364-3.159,3.12-3.159C142.826,45.758,144.23,47.162,144.23,48.917z"/>
	<path class="st2" d="M147.896,28.909v-3.12l3.979,0.117h3.978l3.861-0.117v3.12l-3.861-0.117h-3.978L147.896,28.909z
		 M152.731,52.35v1.988h-3.275l0.116-4.602v-4.407l-0.116-3.472l0.194-0.194l3.237,0.155h2.535l3.081-0.155l0.195,0.194
		l-0.117,3.472v3.666l0.156,4.914h-3.237v-1.56H152.731z M149.611,34.136v-3.042l3.589,0.116h1.833l3.51-0.116v3.042l-3.51-0.117
		H153.2L149.611,34.136z M149.611,39.479v-3.042l3.589,0.117h1.833l3.51-0.117v3.042l-3.51-0.078H153.2L149.611,39.479z
		 M149.689,23.605v-3.042l3.589,0.116h1.755l3.588-0.116v3.042l-3.588-0.117h-1.755L149.689,23.605z M155.501,44.627h-2.77v4.914
		h2.77V44.627z M162.716,40.609h-0.74l-2.574,0.117v-3.159l2.574,0.117h1.677l2.223-0.156l0.195,0.195l-0.156,4.29v5.227
		c1.093,1.17,2.418,1.911,3.9,2.418c1.287,0.429,3.198,0.663,6.318,0.663c2.847,0,5.188-0.117,8.814-0.507
		c-0.663,1.092-1.209,2.457-1.561,3.627c-2.066,0.117-4.251,0.156-7.254,0.156c-2.379,0-4.836-0.312-6.825-0.937
		c-1.482-0.468-2.925-1.326-4.329-2.652c-1.054,1.015-2.224,2.028-3.159,2.77c0,0.975-0.117,1.209-0.546,1.209
		c-0.391,0-0.741-0.312-2.457-3.861c0.975-0.39,1.442-0.663,2.223-1.131c0.585-0.351,1.092-0.702,1.677-1.131V40.609z
		 M163.964,34.369c-1.403-1.638-2.69-2.808-4.251-3.899l2.185-2.224c1.794,1.248,3.042,2.263,4.446,3.822L163.964,34.369z
		 M164.627,25.984c-1.248-1.561-2.69-2.809-4.251-3.9l2.185-2.223c1.872,1.248,3.003,2.262,4.446,3.822L164.627,25.984z
		 M174.183,37.997c-1.326,2.612-3.042,5.031-5.812,7.644c-0.507-1.092-1.092-1.911-1.95-2.69c3.043-2.574,5.109-5.266,6.787-9.01
		h-1.132l-5.108,0.117v-3.12l5.108,0.117h1.989v-9.478c0-0.858,0-1.131-0.351-2.848c4.329,0.352,4.797,0.469,4.797,1.21
		c0,0.39-0.351,0.624-1.248,0.857v10.258h2.185l4.719-0.117v3.12l-4.719-0.117h-2.185v3.51l1.872-1.442
		c1.911,2.184,3.433,4.212,5.07,6.903l-2.613,2.105c-1.481-2.729-2.729-4.68-4.329-6.708v2.77l0.156,8.073h-3.511L174.183,37.997z
		 M170.282,22.591c1.17,1.717,1.872,3.12,2.691,5.266l-2.77,1.443c-0.74-2.106-1.521-3.706-2.573-5.305L170.282,22.591z
		 M184.401,24.736c0,0.468-0.352,0.507-1.209,0.585c-0.547,1.482-1.248,2.964-2.106,4.485c-0.819-0.507-1.599-0.897-2.574-1.131
		c0.624-1.287,1.209-2.535,1.638-3.979c0.273-0.819,0.391-1.365,0.508-2.028C183.933,23.917,184.401,24.19,184.401,24.736z"/>
	<path class="st2" d="M189.236,25.633c2.223,0.156,3.899,0.156,5.07,0.156c1.209,0,2.808-0.039,4.368-0.117
		c0.624-1.014,1.325-2.651,1.833-4.017c-0.897-0.391-1.132-0.702-1.132-0.937c0-0.312,0.156-0.468,0.937-0.468
		c0.546,0,2.262,0.234,4.563,0.702c-0.976,2.184-1.443,3.159-2.185,4.485c2.77-0.156,5.46-0.469,9.751-1.131l0.39,3.275
		c-4.524,0.585-7.684,0.937-11.778,1.209c-1.482,2.067-2.848,3.511-4.446,4.681l0.156,0.156c1.56-0.78,2.847-1.132,3.86-1.132
		c2.965,0,4.759,1.639,5.266,4.837c3.12-1.17,6.514-2.341,9.556-3.472c-0.039-0.624,0-0.857,0.039-1.053
		c0.039-0.234,0.155-0.429,0.468-0.429c0.272,0,0.507,0.194,1.053,0.975c0.78,1.131,1.17,1.677,1.872,3.237
		c-4.797,1.404-8.541,2.613-12.637,4.056c0.117,1.678,0.195,3.472,0.234,6.396l-3.744,0.039c0-1.716-0.039-3.627-0.078-5.343
		c-4.29,1.638-6.045,3.236-6.045,5.187c0,1.989,1.404,2.613,5.577,2.613c4.251,0,8.269-0.312,12.441-0.819l0.117,3.628
		c-4.251,0.39-7.995,0.546-12.715,0.546c-6.591,0-9.048-2.341-9.048-5.812c0-3.198,2.535-6.006,9.36-8.619
		c-0.312-2.379-0.78-2.964-2.652-2.964c-2.34,0-4.057,0.896-8.502,4.407l-0.391-0.039l-1.911-2.574l0.039-0.391
		c3.705-2.847,6.201-5.187,8.034-7.917c-1.287,0.039-2.808,0.039-3.549,0.039c-0.78,0-2.379-0.039-4.095-0.078L189.236,25.633z"/>
	<path class="st2" d="M227.964,44.12c-0.312,4.758-1.287,7.293-3.979,10.842c-0.702-1.014-1.326-1.599-2.301-2.379
		c2.769-3.51,3.314-6.318,3.314-12.714v-7.411l-0.077-3.158l-0.976,0.975c-0.546-0.858-1.287-1.599-2.184-2.262
		c2.573-2.341,3.938-4.213,5.616-7.177c0.585-1.053,0.896-1.911,1.014-2.964c3.822,1.131,4.251,1.404,4.251,1.833
		c0,0.546-0.312,0.741-1.287,0.858c-0.233,0.429-0.468,0.818-0.702,1.209h3.276l0.976-0.858h0.546
		c2.379,2.146,2.535,2.379,2.535,2.925c0,0.43-0.273,0.663-1.443,0.897c-0.702,1.131-1.17,1.95-1.677,2.729l4.056-0.116l0.234,0.233
		l-0.117,4.875v13.183l0.117,5.109c0,2.964-0.937,3.822-4.251,3.822h-1.521c-0.312-1.131-0.819-2.379-1.443-3.549
		c1.717,0.117,2.574,0.155,3.315,0.155c0.624,0,0.741-0.194,0.741-0.857V44.12H227.964z M231.356,27.505
		c0.702-1.131,1.248-2.105,1.716-3.081h-4.095c-0.702,1.015-1.482,2.028-2.301,2.965l3.275,0.116H231.356z M230.538,34.408v-4.446
		h-2.496v4.446H230.538z M230.538,41.663v-4.837h-2.496v4.837H230.538z M233.424,34.408h2.574v-4.446h-2.574V34.408z
		 M233.424,36.826v4.837h2.574v-4.837H233.424z M248.635,23.722c-0.508,4.915-2.263,7.294-6.981,9.907
		c-0.624-1.093-1.326-1.911-2.341-2.613c4.135-1.911,5.539-3.783,5.929-7.294l-5.812,0.156v-3.12l6.24,0.156h6.514l4.68-0.156
		l0.195,0.195l-0.156,2.418c-0.117,2.067-0.233,3.861-0.39,5.109c-0.39,3.081-1.561,3.978-5.344,3.978h-1.17
		c-0.39-1.325-0.779-2.262-1.521-3.393c1.481,0.234,2.145,0.272,3.081,0.272c1.17,0,1.481-0.351,1.599-1.286
		c0.156-1.171,0.312-2.77,0.352-4.33H248.635z M247.815,40.063h-4.329c-0.43,0.858-0.937,1.755-1.561,2.77
		c-0.975-0.78-1.599-1.17-2.574-1.561c1.404-2.066,2.302-3.899,2.73-5.46c0.312-0.975,0.429-1.482,0.507-2.34
		c3.705,1.092,3.939,1.248,3.939,1.833c0,0.351-0.273,0.546-1.326,0.663c-0.156,0.429-0.312,0.857-0.468,1.248h3.081v-1.404
		c0-0.858-0.078-1.599-0.352-2.847c4.563,0.429,4.915,0.663,4.915,1.092c0,0.546-0.352,0.702-1.248,0.936v2.224h1.364l5.227-0.156
		v3.159l-5.227-0.156h-1.364v3.589h2.457l5.226-0.156v3.237l-5.226-0.156h-2.457v1.95l0.155,6.435h-3.627l0.156-6.396v-1.989h-2.73
		l-5.226,0.156v-3.237l5.226,0.156h2.73V40.063z"/>
	<path class="st2" d="M281.356,53.675c-5.383-6.201-9.4-9.672-15.172-14.196c-0.897-0.702-1.287-1.404-1.287-2.379
		c0-0.936,0.39-1.716,1.248-2.574c4.953-4.836,9.243-9.556,12.013-13.065c-0.508-0.741-0.624-1.014-0.624-1.248
		c0-0.312,0.194-0.546,0.624-0.546c0.39,0,1.403,0.468,4.68,2.652c-4.992,5.733-8.619,9.438-13.183,13.884
		c-0.39,0.391-0.507,0.547-0.507,0.78c0,0.234,0.156,0.391,0.468,0.624c5.227,3.979,9.399,7.488,14.821,13.104L281.356,53.675z"/>
</g>
<g id="_x34_9">
	<path class="st2" d="M279.338,290.456c3.677-3.685,5.602-8.276,6.069-13.058c-8.546-1.415-17.66-2.216-27.19-2.222
		c-5.26,0.009-10.351,0.312-15.34,0.755c0.15,5.317,2.153,10.465,6.201,14.528c4.222,4.206,9.601,6.248,15.13,6.267
		C269.731,296.708,275.116,294.666,279.338,290.456z"/>
	<path class="st2" d="M321.095,315.308c0.821-0.141,1.631-0.408,2.351-0.882c1.733-1.137,2.776-3.064,2.776-5.136V160.837
		c0-2.447-1.451-4.654-3.688-5.631c-0.971-0.423-2.021-0.798-3.028-1.199v-10.576c0-2.408-1.391-4.576-3.575-5.58
		c-15.268-6.996-35.453-11.115-57.714-11.13c-25.858,0.048-48.797,5.565-64.598,14.828c-15.802-9.262-38.74-14.78-64.599-14.828
		c-22.266,0.015-42.446,4.135-57.714,11.13c-2.183,1.005-3.574,3.172-3.574,5.58v10.576c-1.008,0.402-2.057,0.776-3.029,1.199
		c-2.243,0.978-3.688,3.184-3.688,5.631V309.29c0,2.075,1.038,4,2.777,5.136c1.733,1.137,3.91,1.322,5.811,0.495
		c13.984-6.102,33.84-10.072,55.795-10.057c27.328-0.051,51.441,6.213,64.928,14.854c0.054,0.036,0.126,0.048,0.18,0.084
		c0.054,0.033,0.096,0.081,0.156,0.114c0.186,0.102,0.396,0.144,0.588,0.228c0.258,0.105,0.504,0.222,0.761,0.294
		c0.27,0.072,0.54,0.096,0.81,0.132c0.27,0.036,0.527,0.081,0.798,0.081c0.263,0,0.527-0.045,0.792-0.081
		c0.276-0.036,0.545-0.06,0.816-0.135c0.258-0.069,0.504-0.183,0.75-0.288c0.198-0.083,0.408-0.126,0.599-0.231
		c0.06-0.033,0.102-0.08,0.156-0.117c0.06-0.033,0.126-0.045,0.18-0.081c6.8-4.357,16.311-8.102,27.568-10.746
		c-6.735-7.943-10.717-17.466-11.923-27.232c-4.593,1.452-8.839,3.148-12.797,5.026V166.078v-13.925
		c13.043-7.718,34.362-13.199,58.457-13.151c18.926-0.015,36.131,3.314,49.007,8.512v98.469c6.027,8.827,9.097,19.124,9.085,29.349
		c0.012,10.866-3.479,21.792-10.279,30.965l-5.481-5.484c5.355-7.625,8.09-16.564,8.084-25.481
		c0.012-11.343-4.348-22.761-13.014-31.415v0.003c-8.659-8.666-20.077-13.023-31.418-13.014
		c-11.346-0.009-22.758,4.357-31.406,13.014c-8.659,8.653-13.019,20.065-13.007,31.411c-0.012,11.34,4.348,22.755,13.007,31.408
		c8.654,8.663,20.066,13.022,31.412,13.014c8.912,0.006,17.853-2.726,25.487-8.087l5.481,5.484l5.967,5.964
		c-0.809,2.741-0.246,5.805,1.913,7.964l28.695,28.689c3.142,3.155,8.252,3.155,11.406,0l5.494-5.499
		c3.154-3.148,3.154-8.258,0-11.4L321.095,315.308z M187.478,166.078v120.687c-15.364-7.286-35.777-11.547-58.458-11.589
		c-18.278,0.012-35.106,2.827-49.006,7.691V147.514c12.875-5.199,30.08-8.527,49.006-8.512c24.096-0.048,45.414,5.433,58.458,13.151
		V166.078z M243.651,295.887c-5.691-5.694-8.503-13.089-8.509-20.555c0.006-7.466,2.824-14.863,8.509-20.558
		c5.697-5.691,13.091-8.506,20.551-8.515c7.466,0.009,14.866,2.822,20.563,8.515l5.427-5.427l-5.427,5.43
		c5.691,5.694,8.51,13.089,8.516,20.554c-0.006,7.463-2.825,14.86-8.516,20.551c-5.697,5.694-13.091,8.509-20.557,8.519
		C256.742,304.393,249.348,301.577,243.651,295.887z"/>
</g>
<g>
</g>
<g>
</g>
<g>
</g>
<g>
</g>
<g>
</g>
<g>
</g>
<g>
</g>
<g>
</g>
<g>
</g>
<g>
</g>
<g>
</g>
<g>
</g>
<g>
</g>
<g>
</g>
<g>
</g>
</svg>
