<?xml version="1.0" encoding="utf-8"?>
<!-- Generator: Adobe Illustrator 25.4.1, SVG Export Plug-In . SVG Version: 6.00 Build 0)  -->
<svg version="1.1" id="レイヤー_1" xmlns="http://www.w3.org/2000/svg" xmlns:xlink="http://www.w3.org/1999/xlink" x="0px"
	 y="0px" viewBox="0 0 400 400" style="enable-background:new 0 0 400 400;" xml:space="preserve">
<style type="text/css">
	.st0{fill:#94B3DE;}
	.st1{fill:#FFFFFF;}
	.st2{fill:#00072B;}
</style>
<rect class="st0" width="400" height="400"/>
<rect x="0" class="st1" width="400" height="80"/>
<g>
	<path class="st2" d="M110.145,48.488l4.135,0.39v2.73H100.94v-2.73l4.953-0.39v-4.681H93.257V39.83L104.1,22.123h6.045v18.409
		h5.109l-0.78,3.275h-4.329V48.488z M105.894,25.517l-8.971,15.016h8.971V25.517z"/>
	<path class="st2" d="M124.73,48.917c0,1.716-1.404,3.081-3.12,3.081c-1.756,0-3.12-1.365-3.12-3.081
		c0-1.755,1.364-3.159,3.12-3.159C123.326,45.758,124.73,47.162,124.73,48.917z"/>
	<path class="st2" d="M134.012,44.12c-0.312,4.758-1.287,7.293-3.978,10.842c-0.702-1.014-1.326-1.599-2.302-2.379
		c2.77-3.51,3.315-6.318,3.315-12.714v-7.411L130.97,29.3l-0.975,0.975c-0.547-0.858-1.287-1.599-2.185-2.262
		c2.574-2.341,3.939-4.213,5.616-7.177c0.585-1.053,0.897-1.911,1.014-2.964c3.822,1.131,4.252,1.404,4.252,1.833
		c0,0.546-0.312,0.741-1.287,0.858c-0.234,0.429-0.469,0.818-0.702,1.209h3.276l0.975-0.858h0.546
		c2.379,2.146,2.535,2.379,2.535,2.925c0,0.43-0.272,0.663-1.443,0.897c-0.701,1.131-1.17,1.95-1.677,2.729l4.057-0.116l0.233,0.233
		l-0.117,4.875v13.183l0.117,5.109c0,2.964-0.936,3.822-4.251,3.822h-1.521c-0.312-1.131-0.818-2.379-1.442-3.549
		c1.716,0.117,2.574,0.155,3.314,0.155c0.624,0,0.741-0.194,0.741-0.857V44.12H134.012z M137.405,27.505
		c0.702-1.131,1.248-2.105,1.716-3.081h-4.095c-0.702,1.015-1.482,2.028-2.302,2.965l3.276,0.116H137.405z M136.586,34.408v-4.446
		h-2.496v4.446H136.586z M136.586,41.663v-4.837h-2.496v4.837H136.586z M139.472,34.408h2.574v-4.446h-2.574V34.408z
		 M139.472,36.826v4.837h2.574v-4.837H139.472z M154.683,23.722c-0.507,4.915-2.262,7.294-6.981,9.907
		c-0.624-1.093-1.326-1.911-2.34-2.613c4.134-1.911,5.538-3.783,5.928-7.294l-5.811,0.156v-3.12l6.24,0.156h6.513l4.681-0.156
		l0.195,0.195l-0.156,2.418c-0.117,2.067-0.234,3.861-0.391,5.109c-0.39,3.081-1.56,3.978-5.343,3.978h-1.17
		c-0.391-1.325-0.78-2.262-1.521-3.393c1.482,0.234,2.146,0.272,3.081,0.272c1.17,0,1.482-0.351,1.6-1.286
		c0.156-1.171,0.312-2.77,0.351-4.33H154.683z M153.863,40.063h-4.329c-0.429,0.858-0.936,1.755-1.56,2.77
		c-0.976-0.78-1.6-1.17-2.574-1.561c1.404-2.066,2.301-3.899,2.73-5.46c0.312-0.975,0.429-1.482,0.507-2.34
		c3.705,1.092,3.938,1.248,3.938,1.833c0,0.351-0.272,0.546-1.325,0.663c-0.156,0.429-0.312,0.857-0.469,1.248h3.081v-1.404
		c0-0.858-0.078-1.599-0.351-2.847c4.563,0.429,4.914,0.663,4.914,1.092c0,0.546-0.351,0.702-1.248,0.936v2.224h1.365l5.226-0.156
		v3.159l-5.226-0.156h-1.365v3.589h2.457l5.227-0.156v3.237l-5.227-0.156h-2.457v1.95l0.156,6.435h-3.627l0.155-6.396v-1.989h-2.729
		l-5.227,0.156v-3.237l5.227,0.156h2.729V40.063z"/>
	<path class="st2" d="M167.162,28.909v-3.237l5.108,0.117h4.135l5.147-0.117v3.237l-5.147-0.117h-4.135L167.162,28.909z
		 M172.388,52.311v2.262h-3.354l0.155-5.499v-3.939l-0.155-3.432l0.233-0.156l3.744,0.156h3.354l3.744-0.156l0.233,0.156
		l-0.116,3.432v3.588l0.155,5.148h-3.432v-1.56H172.388z M169.307,34.136v-3.159l3.979,0.117h2.847l3.979-0.117v3.159l-3.979-0.117
		h-2.847L169.307,34.136z M169.307,39.439V36.28l3.979,0.117h2.847l3.979-0.117v3.159l-3.979-0.117h-2.847L169.307,39.439z
		 M169.385,23.488v-3.159l3.979,0.117h2.769l3.979-0.117v3.159l-3.979-0.117h-2.769L169.385,23.488z M176.951,44.666h-4.563v4.758
		h4.563V44.666z M190.913,41.156c0,0.39-0.194,0.662-1.325,0.975c0,5.655-0.937,8.112-3.159,10.18
		c-0.976,0.936-2.146,1.716-3.666,2.34c-0.469-1.053-1.132-1.794-2.106-2.574c1.56-0.546,2.691-1.287,3.705-2.262
		c1.17-1.209,1.833-2.965,1.833-6.981c0-1.053,0-1.326-0.195-2.925C190.328,40.376,190.913,40.57,190.913,41.156z M192.356,27.35
		c1.209-2.38,1.95-3.939,2.574-5.694c0.351-0.976,0.507-1.678,0.741-2.887c4.134,1.482,4.485,1.639,4.485,2.224
		c0,0.468-0.156,0.624-1.248,0.741c-1.132,2.379-1.95,4.017-2.809,5.616l4.563-0.195l0.156,0.195l-0.156,3.899v3.979l0.156,3.9
		l-0.156,0.156l-4.681-0.156h-0.233v11.076c0,0.702,0.078,0.741,1.833,0.741c2.418,0,2.457-0.078,2.652-4.173
		c1.286,0.74,2.145,1.092,3.197,1.364c-0.351,5.227-1.17,5.851-5.771,5.929c-4.29,0.078-5.305-0.585-5.305-3.433V39.128h-4.758
		l-4.603,0.156l-0.233-0.156l0.155-3.979v-3.9l-0.117-3.899l0.156-0.195l4.681,0.195H192.356z M186.701,19.12
		c1.443,1.755,2.77,3.705,3.9,6.084l-3.081,1.872c-1.092-2.418-2.224-4.329-3.822-6.318L186.701,19.12z M197.231,36.241v-6.006
		h-10.959v6.006H197.231z"/>
	<path class="st2" d="M208.736,25.633c2.223,0.156,3.899,0.156,5.07,0.156c1.209,0,2.808-0.039,4.368-0.117
		c0.624-1.014,1.325-2.651,1.833-4.017c-0.897-0.391-1.132-0.702-1.132-0.937c0-0.312,0.156-0.468,0.937-0.468
		c0.546,0,2.262,0.234,4.563,0.702c-0.976,2.184-1.443,3.159-2.185,4.485c2.77-0.156,5.46-0.469,9.751-1.131l0.39,3.275
		c-4.524,0.585-7.684,0.937-11.778,1.209c-1.482,2.067-2.848,3.511-4.446,4.681l0.156,0.156c1.56-0.78,2.847-1.132,3.86-1.132
		c2.965,0,4.759,1.639,5.266,4.837c3.12-1.17,6.514-2.341,9.556-3.472c-0.039-0.624,0-0.857,0.039-1.053
		c0.039-0.234,0.155-0.429,0.468-0.429c0.272,0,0.507,0.194,1.053,0.975c0.78,1.131,1.17,1.677,1.872,3.237
		c-4.797,1.404-8.541,2.613-12.637,4.056c0.117,1.678,0.195,3.472,0.234,6.396l-3.744,0.039c0-1.716-0.039-3.627-0.078-5.343
		c-4.29,1.638-6.045,3.236-6.045,5.187c0,1.989,1.404,2.613,5.577,2.613c4.251,0,8.269-0.312,12.441-0.819l0.117,3.628
		c-4.251,0.39-7.995,0.546-12.715,0.546c-6.591,0-9.048-2.341-9.048-5.812c0-3.198,2.535-6.006,9.36-8.619
		c-0.312-2.379-0.78-2.964-2.652-2.964c-2.34,0-4.057,0.896-8.502,4.407l-0.391-0.039l-1.911-2.574l0.039-0.391
		c3.705-2.847,6.201-5.187,8.034-7.917c-1.287,0.039-2.808,0.039-3.549,0.039c-0.78,0-2.379-0.039-4.095-0.078L208.736,25.633z"/>
	<path class="st2" d="M247.347,54.846h-3.549l0.155-6.24V25.126l-0.155-4.953l0.233-0.156l4.875,0.156h4.485l4.876-0.156
		l0.233,0.156l-0.156,3.394v5.304l0.156,3.394l-0.194,0.194l-4.915-0.155h-6.045V54.846z M255.147,22.708h-7.801v2.224h7.801V22.708
		z M247.347,27.389v2.418h7.801v-2.418H247.347z M266.848,49.269l0.117,4.719h-3.394l0.117-4.251
		c-4.603,0.546-8.697,0.896-13.026,1.248c-0.117,0.624-0.312,0.857-0.624,0.857c-0.547,0-0.741-0.351-1.834-3.627
		c1.093,0.039,2.341,0.039,3.433-0.039c0.273,0,0.585-0.039,0.897-0.039V37.256l-3.861,0.117v-2.848l5.616,0.156h11.35l5.538-0.156
		v2.848l-4.329-0.117V49.269z M263.688,37.217h-8.034v1.755h8.034V37.217z M263.688,41.39h-8.034v1.794h8.034V41.39z
		 M263.688,45.602h-8.034v2.341c2.69-0.195,5.343-0.43,8.034-0.663V45.602z M265.95,32.303l-4.953,0.155l-0.194-0.155l0.155-3.433
		v-5.265l-0.155-3.433l0.233-0.156l4.914,0.156h5.07l4.875-0.156l0.234,0.156l-0.156,4.953v21.139l0.117,4.837
		c0,3.042-0.897,3.783-4.953,3.783h-1.287c-0.273-1.21-0.702-2.38-1.326-3.628c1.794,0.156,2.574,0.195,3.159,0.195
		s0.897-0.117,0.897-0.741V32.303H265.95z M272.581,24.932v-2.224h-8.347v2.224H272.581z M264.234,29.768h8.347v-2.379h-8.347
		V29.768z"/>
	<path class="st2" d="M300.856,53.675c-5.383-6.201-9.399-9.672-15.172-14.196c-0.897-0.702-1.287-1.404-1.287-2.379
		c0-0.936,0.39-1.716,1.248-2.574c4.953-4.836,9.243-9.556,12.013-13.065c-0.508-0.741-0.624-1.014-0.624-1.248
		c0-0.312,0.194-0.546,0.624-0.546c0.39,0,1.403,0.468,4.68,2.652c-4.992,5.733-8.619,9.438-13.183,13.884
		c-0.39,0.391-0.507,0.547-0.507,0.78c0,0.234,0.156,0.391,0.468,0.624c5.227,3.979,9.399,7.488,14.821,13.104L300.856,53.675z"/>
</g>
<g>
	<path class="st2" d="M118.179,170.516c10.825,0,19.602-8.778,19.602-19.602s-8.777-19.602-19.602-19.602
		c-10.824,0-19.601,8.778-19.601,19.602S107.355,170.516,118.179,170.516z"/>
	<path class="st2" d="M167.193,173.024c-1.428,0.988-2.584,2.4-3.225,4.156c-1.278,3.483-4.358,8.799-6.823,12.084
		c-1.542-1.334-3.424-3.127-4.966-4.596c-2.056-1.96-4.309-4.104-6.771-6.279c-1.338-1.185-2.94-1.88-4.587-2.105v-0.052h-1.242
		c-0.195,0.001-0.388-0.015-0.582,0H96.944c-0.237-0.007-0.47-0.013-0.707,0h-0.745v0.09c-1.875,0.265-3.682,1.104-5.088,2.584
		c-4.236,4.445-7.509,11.382-10.673,18.091c-1.162,2.461-2.31,4.901-3.47,7.111c-5.243,9.996-2.969,21.561-1.464,29.215
		c0.334,1.699,0.679,3.456,0.745,4.332c0.346,4.577,4.168,8.058,8.683,8.058c0.222,0,0.444-0.007,0.668-0.025
		c4.799-0.364,8.397-4.55,8.033-9.351c-0.144-1.908-0.551-3.98-1.023-6.379c-1.096-5.568-2.594-13.191-0.203-17.748
		c1.265-2.414,2.524-5.077,3.791-7.762v39.623h45.329v-46.15c5.364,5.102,11.221,10.453,17.383,10.453
		c2.239,0,4.52-0.709,6.828-2.393c0.722-0.527,1.443-1.181,2.161-1.873v9.19h165.052V109.069H167.193V173.024z M327.56,113.754
		v94.862H171.877v-10.044c3.928-5.462,7.189-11.929,8.459-15.394c0.828-2.261,0.661-4.644-0.278-6.668l14.027-22.725l-3.985-2.461
		l-13.276,21.507c-0.519-0.329-1.073-0.616-1.674-0.836c-1.081-0.398-2.189-0.554-3.273-0.52v-57.721H327.56z"/>
	<path class="st2" d="M116.316,282.491c0-10.825-8.777-19.602-19.601-19.602s-19.602,8.777-19.602,19.602
		c0,10.824,8.778,19.601,19.602,19.601S116.316,293.315,116.316,282.491z"/>
	<path class="st2" d="M125.673,327.479c0-12.126-9.83-21.956-21.956-21.956H89.711c-12.126,0-21.956,9.83-21.956,21.956v31.591
		h57.918V327.479z"/>
	<path class="st2" d="M183.473,282.491c0-10.825-8.778-19.602-19.602-19.602c-10.824,0-19.602,8.777-19.602,19.602
		c0,10.824,8.778,19.601,19.602,19.601C174.695,302.092,183.473,293.315,183.473,282.491z"/>
	<path class="st2" d="M134.912,327.479v31.591h57.918v-31.591c0-12.126-9.83-21.956-21.956-21.956h-14.006
		C144.742,305.523,134.912,315.353,134.912,327.479z"/>
	<path class="st2" d="M250.629,282.491c0-10.825-8.778-19.602-19.602-19.602c-10.824,0-19.602,8.777-19.602,19.602
		c0,10.824,8.778,19.601,19.602,19.601C241.851,302.092,250.629,293.315,250.629,282.491z"/>
	<path class="st2" d="M202.068,327.479v31.591h57.918v-31.591c0-12.126-9.83-21.956-21.956-21.956h-14.006
		C211.898,305.523,202.068,315.353,202.068,327.479z"/>
	<path class="st2" d="M317.785,282.491c0-10.825-8.778-19.602-19.602-19.602c-10.824,0-19.602,8.777-19.602,19.602
		c0,10.824,8.778,19.601,19.602,19.601C309.007,302.092,317.785,293.315,317.785,282.491z"/>
	<path class="st2" d="M305.186,305.523h-14.006c-12.126,0-21.956,9.83-21.956,21.956v31.591h57.918v-31.591
		C327.142,315.353,317.312,305.523,305.186,305.523z"/>
</g>
<g>
</g>
<g>
</g>
<g>
</g>
<g>
</g>
<g>
</g>
<g>
</g>
<g>
</g>
<g>
</g>
<g>
</g>
<g>
</g>
<g>
</g>
<g>
</g>
<g>
</g>
<g>
</g>
<g>
</g>
</svg>
