<?xml version="1.0" encoding="utf-8"?>
<!-- Generator: Adobe Illustrator 25.4.1, SVG Export Plug-In . SVG Version: 6.00 Build 0)  -->
<svg version="1.1" id="レイヤー_1" xmlns="http://www.w3.org/2000/svg" xmlns:xlink="http://www.w3.org/1999/xlink" x="0px"
	 y="0px" viewBox="0 0 400 400" style="enable-background:new 0 0 400 400;" xml:space="preserve">
<style type="text/css">
	.st0{fill:#94B3DE;}
	.st1{fill:#FFFFFF;}
	.st2{fill:#00072B;}
</style>
<rect class="st0" width="400" height="400"/>
<rect x="0" class="st1" width="400" height="80"/>
<g>
	<path class="st2" d="M80.835,50.608H65.469v-2.73l5.499-0.39V25.141l-6.475,2.262v-3.276l7.488-3.003h3.354v26.365l5.499,0.39
		V50.608z"/>
	<path class="st2" d="M93.743,47.917c0,1.716-1.404,3.081-3.12,3.081c-1.755,0-3.12-1.365-3.12-3.081
		c0-1.755,1.365-3.159,3.12-3.159C92.339,44.758,93.743,46.162,93.743,47.917z"/>
	<path class="st2" d="M113.049,27.909l-0.312-0.272c-3.159,0.507-6.669,0.975-10.374,1.248c-0.273-1.209-0.741-2.185-1.521-3.315
		c7.996-0.507,14.938-1.6,20.047-3.822c-0.39-0.585-0.507-0.897-0.507-1.131c0-0.234,0.156-0.391,0.507-0.391
		c0.585,0,1.6,0.819,4.603,3.783c-3.744,1.443-6.553,2.38-9.634,3.043l1.482,0.468l-0.273,2.223v3.433h5.422l6.357-0.156v3.783
		l-6.357-0.117h-5.422c0,8.112-3.12,12.441-11.583,15.289c-0.741-1.171-1.443-2.146-2.535-3.198
		c7.801-2.224,10.102-5.266,10.102-12.091h-7.684l-6.357,0.117v-3.783l6.357,0.156h7.684V27.909z"/>
	<path class="st2" d="M143.82,30.718c-1.678,3.471-3.276,5.771-6.514,8.892c-0.78-0.857-1.833-1.677-3.198-2.379
		c4.759-4.212,7.099-8.893,8.269-15.679c-0.936-0.468-1.17-0.779-1.17-1.092c0-0.312,0.195-0.468,0.78-0.468
		c0.779,0,1.755,0.195,4.875,1.014l-0.819,2.73c-0.312,1.365-0.585,2.262-1.014,3.432h14.938l6.318-0.155v3.821l-6.279-0.116h-3.627
		v1.599c0,10.569-3.472,16.303-12.988,19.345c-0.507-1.053-1.17-2.223-2.34-3.393c8.58-2.458,11.193-6.163,11.193-15.991v-1.56
		H143.82z"/>
	<path class="st2" d="M175.293,30.055c1.95,2.34,3.666,5.343,4.798,8.268L177.01,40c-1.21-3.003-2.887-6.007-4.681-8.229
		L175.293,30.055z M196.588,32.512c-2.105,10.374-6.864,16.107-18.214,19.891c-0.546-1.092-1.287-1.95-2.418-2.77
		c11.545-3.471,16.107-9.048,17.161-18.799c-0.819-0.585-1.054-0.857-1.054-1.131c0-0.351,0.234-0.468,0.624-0.468
		c0.624,0,1.717,0.273,4.446,1.248L196.588,32.512z M183.366,28.689c1.717,2.574,2.926,5.109,3.979,7.995l-3.159,1.561
		c-0.975-2.965-2.262-5.772-3.861-8.035L183.366,28.689z"/>
	<path class="st2" d="M215.269,31.381c4.524,1.287,7.761,2.729,11.935,5.187l-2.067,3.511c-4.134-2.535-7.8-4.329-11.583-5.383
		V45.07l0.156,6.318h-4.33l0.117-6.318V22.098c-0.975-0.546-1.248-0.818-1.248-1.17c0-0.351,0.234-0.507,0.937-0.507
		c0.741,0,1.989,0.195,4.719,0.858l-0.351,2.262v10.413L215.269,31.381z"/>
	<path class="st2" d="M234.379,24.633c2.223,0.156,3.9,0.156,5.07,0.156c1.209,0,2.808-0.039,4.368-0.117
		c0.624-1.014,1.326-2.651,1.833-4.017c-0.897-0.391-1.131-0.702-1.131-0.937c0-0.312,0.155-0.468,0.936-0.468
		c0.546,0,2.263,0.234,4.563,0.702c-0.976,2.184-1.443,3.159-2.185,4.485c2.77-0.156,5.461-0.469,9.751-1.131l0.39,3.275
		c-4.524,0.585-7.684,0.937-11.778,1.209c-1.482,2.067-2.847,3.511-4.446,4.681l0.156,0.156c1.56-0.78,2.847-1.132,3.861-1.132
		c2.964,0,4.758,1.639,5.265,4.837c3.12-1.17,6.514-2.341,9.556-3.472c-0.039-0.624,0-0.857,0.039-1.053
		c0.039-0.234,0.156-0.429,0.468-0.429c0.273,0,0.507,0.194,1.053,0.975c0.78,1.131,1.171,1.677,1.872,3.237
		c-4.797,1.404-8.541,2.613-12.636,4.056c0.117,1.678,0.194,3.472,0.233,6.396l-3.744,0.039c0-1.716-0.039-3.627-0.078-5.343
		c-4.29,1.638-6.045,3.236-6.045,5.187c0,1.989,1.404,2.613,5.577,2.613c4.251,0,8.269-0.312,12.441-0.819l0.117,3.628
		c-4.251,0.39-7.995,0.546-12.715,0.546c-6.591,0-9.048-2.341-9.048-5.812c0-3.198,2.535-6.006,9.36-8.619
		c-0.312-2.379-0.78-2.964-2.652-2.964c-2.34,0-4.056,0.896-8.502,4.407l-0.391-0.039l-1.91-2.574l0.038-0.391
		c3.706-2.847,6.202-5.187,8.035-7.917c-1.287,0.039-2.809,0.039-3.55,0.039c-0.779,0-2.379-0.039-4.095-0.078L234.379,24.633z"/>
	<path class="st2" d="M280.127,47.995c2.847,1.638,3.042,1.833,3.042,2.34c0,0.352-0.234,0.546-1.054,0.546
		c-0.312,0-0.663-0.039-1.131-0.078c-3.666,1.404-7.761,2.458-11.427,3.043c-0.43-0.976-1.287-1.989-2.302-2.965
		c4.407-0.546,8.269-1.403,10.921-2.301c0.663-0.234,0.896-0.351,1.248-0.585h-0.195l-5.655,0.195l-0.195-0.195l0.156-5.305v-6.864
		l-0.156-4.914l0.195-0.194l5.655,0.194h12.987l5.655-0.194l0.234,0.194l-0.195,4.914v6.864l0.195,5.305l-0.195,0.195l-5.694-0.195
		h-0.663c3.627,0.663,7.996,1.755,11.74,3.081l-2.496,2.964c-3.667-1.56-7.684-2.964-12.676-3.822l2.613-2.223H280.127z
		 M269.597,29.196l-0.234-0.156l0.156-3.393v-2.34l-0.156-3.511l0.195-0.195l5.693,0.195h20.905l5.694-0.195l0.195,0.195
		l-0.156,3.511v2.418l0.156,3.275l-0.195,0.195l-5.694-0.156h-20.905L269.597,29.196z M279.269,22.527h-6.318v3.783h6.318V22.527z
		 M294.44,35.749v-2.028h-17.434v2.028H294.44z M277.007,38.361v2.028h17.434v-2.028H277.007z M294.44,43.003h-17.434v2.146h17.434
		V43.003z M288.746,22.527h-6.007v3.783h6.007V22.527z M292.217,26.311h6.24v-3.783h-6.24V26.311z"/>
	<path class="st2" d="M308.675,30.951c7.605-1.95,11.778-2.69,15.835-2.69c6.279,0,9.438,2.847,9.438,8.463
		c0,7.645-5.694,13.611-18.02,15.25c-0.272-1.209-0.818-2.38-1.599-3.589c11.076-1.131,15.562-5.538,15.562-11.661
		c0-3.432-1.56-4.875-5.343-4.875c-4.096,0-8.112,0.78-14.86,2.964L308.675,30.951z M313.94,19.719
		c5.655,0.312,10.92,0.741,16.186,1.717l-0.702,3.549c-5.031-0.976-10.141-1.443-15.796-1.561L313.94,19.719z"/>
</g>
<g>
	<polygon class="st2" points="302.033,242.893 300.339,243.921 300.339,243.921 	"/>
	<path class="st2" d="M288.271,108.069l-45.059,27.262l2.539,4.196l-6.289,3.797l-2.533-4.185L48.314,253.288l63.41,104.781
		l188.615-114.148l-2.539-4.185l6.288-3.808l2.533,4.196l45.063-27.274L288.271,108.069z M251.053,148.287l5.303,8.769l-6.283,3.797
		l-5.308-8.759L251.053,148.287z M114.402,309.502l-19.828-32.769l-9.659,5.853l-3.96-6.545l26.935-16.301l3.96,6.546l-9.711,5.874
		l19.828,32.759L114.402,309.502z M136.129,296.348l-23.788-39.304l7.566-4.574l23.785,39.304L136.129,296.348z M168.075,277.719
		c-11.806,7.143-23.203,3.073-30.257-8.581c-8.318-13.742-3.684-26.046,6.742-32.361c4.243-2.559,7.529-3.367,9.024-3.43
		l2.229,7.028c-1.936,0.263-4.351,0.892-7.06,2.528c-6.49,3.923-9.013,11.528-3.26,21.032c5.384,8.895,12.808,10.899,19.912,6.598
		c2.352-1.427,4.579-3.399,5.709-4.993l4.755,5.434C174.82,272.589,172.113,275.275,168.075,277.719z M201.505,256.781
		l-19.615-11.864l-0.53,5.696l8.135,13.437l-7.516,4.553l-23.785-39.305l7.513-4.552l10.765,17.79l0.152-0.095
		c-0.11-2.025-0.139-4.039-0.217-6.01l0.39-18.399l8.995-5.444l-1.681,24.001l26.03,14.969L201.505,256.781z M213.826,249.333
		l-23.786-39.305l21.158-12.808l3.837,6.336l-13.598,8.224l5.754,9.514l12.829-7.762l3.744,6.178l-12.828,7.762l6.619,10.941
		l14.413-8.727l3.834,6.346L213.826,249.333z M248.121,228.575l-19.825-32.77l-9.661,5.854l-3.958-6.546l26.935-16.301l3.96,6.546
		l-9.713,5.874l19.831,32.76L248.121,228.575z M255.37,169.622l6.294-3.808l5.297,8.769l-6.283,3.798L255.37,169.622z
		 M265.98,187.151l6.289-3.808l5.302,8.769l-6.289,3.797L265.98,187.151z M276.59,204.679l6.283-3.808l5.303,8.769l-6.283,3.797
		L276.59,204.679z M292.498,230.966l-5.303-8.759l6.283-3.808l5.308,8.77L292.498,230.966z"/>
</g>
<g>
</g>
<g>
</g>
<g>
</g>
<g>
</g>
<g>
</g>
<g>
</g>
<g>
</g>
<g>
</g>
<g>
</g>
<g>
</g>
<g>
</g>
<g>
</g>
<g>
</g>
<g>
</g>
<g>
</g>
</svg>
