<?xml version="1.0" encoding="utf-8"?>
<!-- Generator: Adobe Illustrator 25.4.1, SVG Export Plug-In . SVG Version: 6.00 Build 0)  -->
<svg version="1.1" id="レイヤー_1" xmlns="http://www.w3.org/2000/svg" xmlns:xlink="http://www.w3.org/1999/xlink" x="0px"
	 y="0px" viewBox="0 0 400 360" style="enable-background:new 0 0 400 360;" xml:space="preserve">
<style type="text/css">
	.st0{fill:#231815;}
</style>
<g>
	<polygon class="st0" points="321.079,191.657 319.069,192.877 319.069,192.877 	"/>
	<path class="st0" d="M304.747,31.667l-53.469,32.351l3.013,4.979l-7.462,4.506l-3.006-4.967L20,203.993l75.246,124.34
		l223.823-135.456l-3.013-4.967l7.462-4.519l3.006,4.979L380,156.007L304.747,31.667z M260.583,79.392l6.292,10.406l-7.456,4.506
		l-6.299-10.394L260.583,79.392z M98.424,270.7l-23.529-38.886l-11.462,6.946l-4.699-7.767l31.962-19.344l4.7,7.768l-11.524,6.97
		l23.529,38.874L98.424,270.7z M124.206,255.091l-28.228-46.641l8.978-5.427l28.225,46.641L124.206,255.091z M162.115,232.984
		c-14.01,8.476-27.534,3.647-35.905-10.183c-9.871-16.307-4.372-30.908,8.001-38.401c5.035-3.037,8.934-3.995,10.708-4.071
		l2.645,8.34c-2.297,0.312-5.163,1.059-8.378,3c-7.701,4.656-10.696,13.68-3.868,24.958c6.389,10.555,15.199,12.933,23.629,7.829
		c2.791-1.693,5.434-4.033,6.775-5.925l5.642,6.448C170.119,226.897,166.908,230.083,162.115,232.984z M201.786,208.138
		l-23.277-14.078l-0.629,6.759l9.654,15.945l-8.919,5.403l-28.225-46.642l8.916-5.402l12.774,21.111l0.18-0.112
		c-0.131-2.403-0.165-4.793-0.258-7.132l0.463-21.833l10.674-6.461l-1.995,28.481l30.889,17.763L201.786,208.138z M216.406,199.3
		l-28.226-46.642l25.107-15.198l4.553,7.518l-16.136,9.759l6.828,11.29l15.224-9.211l4.443,7.332l-15.223,9.211l7.854,12.983
		l17.103-10.356l4.55,7.531L216.406,199.3z M257.104,174.666l-23.526-38.887l-11.464,6.946l-4.696-7.768l31.963-19.344l4.699,7.768
		l-11.527,6.97l23.532,38.875L257.104,174.666z M265.705,104.71l7.469-4.519l6.286,10.406l-7.456,4.507L265.705,104.71z
		 M278.296,125.51l7.462-4.519l6.292,10.406l-7.462,4.506L278.296,125.51z M290.887,146.31l7.456-4.519l6.292,10.406l-7.456,4.506
		L290.887,146.31z M309.764,177.504l-6.292-10.394l7.456-4.519l6.299,10.407L309.764,177.504z"/>
</g>
<g>
</g>
<g>
</g>
<g>
</g>
<g>
</g>
<g>
</g>
<g>
</g>
<g>
</g>
<g>
</g>
<g>
</g>
<g>
</g>
<g>
</g>
<g>
</g>
<g>
</g>
<g>
</g>
<g>
</g>
</svg>
