<?xml version="1.0" encoding="utf-8"?>
<!-- Generator: Adobe Illustrator 25.4.1, SVG Export Plug-In . SVG Version: 6.00 Build 0)  -->
<svg version="1.1" id="レイヤー_1" xmlns="http://www.w3.org/2000/svg" xmlns:xlink="http://www.w3.org/1999/xlink" x="0px"
	 y="0px" viewBox="0 0 800 97.8" style="enable-background:new 0 0 800 97.8;" xml:space="preserve">
<style type="text/css">
	.st0{fill:#D7BBD8;}
	.st1{fill:#D8BCD9;}
	.st2{fill:#93B3DD;}
	.st3{fill:#B6DBB7;}
	.st4{fill:#FFFFFF;}
	.st5{fill:none;stroke:#D7BBD8;stroke-width:1.7129;stroke-miterlimit:10;}
	.st6{fill:none;stroke:#D7BBD8;stroke-width:1.7129;stroke-linecap:round;stroke-miterlimit:10;}
	.st7{fill:none;stroke:#FFFFFF;stroke-width:0.428;stroke-linecap:round;stroke-miterlimit:10;}
	.st8{fill:#DDD0E5;stroke:#DDD0E5;stroke-width:0.428;stroke-linecap:round;stroke-miterlimit:10;}
</style>
<g>
	<path class="st0" d="M462.5,5.6c-1.3-0.8-4.5-1.4-6.4,0.8c-1.8,2.1-2.7,6.1-4.3,9.5c-0.4,0.9-0.8,1.7-1.1,2.4l5.9,2.8
		c0.1-0.3,0.2-0.6,0.4-0.9c0.9-1.9,2.6-3.3,4.6-4.7c1.8-1.3,3.5-1.5,3.5-5.5C465.2,7.8,463.6,6.2,462.5,5.6z"/>
	<path class="st1" d="M449.6,21.6c-0.2,0.9-0.4,1.8-0.5,2.8c-0.3,2.8,0.2,4.6,1.4,5.4c1.4,0.8,4,0.2,4.9-3c0.3-0.9,0.4-1.5,0.4-2.2
		L449.6,21.6z"/>
	<path class="st0" d="M430.3,63c-0.4,0.7-0.9,1.4-1.5,2.1c-1.6,2-3.1,2.8-4.3,2.5c-1.4-0.4-2.6-2.5-1.1-5.1c0.4-0.7,0.8-1.2,1.1-1.6
		L430.3,63z"/>
	<path class="st0" d="M432.5,44.6c1.3,0.3,3.7,2,3.5,4.6c-0.2,2.5-2.2,5.5-3.4,8.8c-0.3,0.8-0.6,1.6-0.9,2.2l-5.5-2.1
		c0.1-0.3,0.2-0.5,0.3-0.8c0.6-1.7,0.5-3.7,0.1-5.9c-0.3-2-1.2-3.2,1.4-5.7C429.5,44.3,431.4,44.3,432.5,44.6z"/>
	<path class="st2" d="M759.9,48.5c-0.5,0.5-0.9,1.1-1.2,1.7c3.2-2,7.4-1.7,10.2,1c2.9,2.7,3.4,6.9,1.6,10.1c0.6-0.4,1.1-0.8,1.6-1.3
		c3.2-3.4,3-8.7-0.4-11.9C768.4,45,763.1,45.2,759.9,48.5z"/>
	<path class="st3" d="M190.8,57.6H97.6v-6h43.2V47h-35v-6h35v-4.6h-32.5v-6h32.5v-4.6H97.1v-6h43.7v-4.7h-33.4v-6h33.2V2.1h7.7v7.1
		h32.1v10.7h10.5v6h-10.5v10.6h-32.3V41h34.1v6h-34.1v4.6h42.7L190.8,57.6L190.8,57.6z M173.1,19.9v-4.7h-25v4.7L173.1,19.9
		L173.1,19.9z M173.1,30.4v-4.6h-25v4.6H173.1z"/>
	<path class="st3" d="M245.2,19.1l-5.2,4.6L226.8,9.1c-6.9,8.3-13.9,15.8-21.2,22.5l-4.8-5.3c8.7-7.8,16.3-16,23-24.7l5.4-0.1
		L245.2,19.1z M246.6,90.4l-6,3.6l-5.2-8.8l-31.6,9.5l-2-6.6l6.2-1.8V30.3H222V20.1h7v10.3h13V67H215v17.1l16.8-5l-4.6-7.7l6-3.5
		L246.6,90.4z M235,45.9v-8.6H215v8.6H235z M235,60.2v-8.4H215v8.4H235z M296.7,34.9h-6.9v-15h-37.7v14.8h-6.7V13.3h22.4V1.6h7.3
		v11.7h21.6L296.7,34.9L296.7,34.9z M292.8,94.8h-6.9v-4.9H262v4.9h-7V30.1h31.9v26.5H262v7.3h30.8L292.8,94.8L292.8,94.8z
		 M280,49.9V37h-18v12.8H280z M285.9,83V70.8H262V83H285.9z"/>
	<path class="st4" d="M353.7,92.6c-7.3,1.6-13.8,2.5-19.5,2.5c-7.3,0-12.7-1.4-16.2-4.1c-2.9-2.3-4.5-5.1-4.9-8.4
		c-0.6-7.1,4.6-13.9,15.8-20.3V49.8c-0.3-5.6-0.9-9.5-2.2-11.8c-1-1.9-2.7-3.8-5-5.6l4.2-4.8c3.3,2.7,5.6,5.4,6.8,8.2
		c1.2,2.5,1.9,6,2.1,10.4c0.2,2.3,0.3,6.5,0.2,12.6c5.1-2.7,9.9-5,14.7-7.1l2.2,5.9c-22.7,9.3-33.9,17.6-32.9,24.5
		c0.4,2.5,2.2,4.3,5.6,5.5c2.5,0.9,5.7,1.5,9.6,1.5c5.2,0,11.2-0.8,18.1-2.3L353.7,92.6z"/>
	<path class="st0" d="M403.1,25.3h-32v-6.9h32V25.3z M400.5,89.8h-20.9v4.4h-7V60.1h27.8V89.8z M399.6,39.3h-25.9v-6.6h25.9V39.3z
		 M399.6,52.6h-25.9v-6.6h25.9V52.6z M399.8,10.9h-25.7V4.1h25.7V10.9z M393.7,83.1V66.9h-14.1v16.1H393.7z M463.5,91.6h-31.8
		c-6.2,0-11.6-2.8-16.2-8.3l-8.9,10.5l-5.2-4.5l10.3-12V58.6h-9.2v-7h16.1v24.1c3.6,6,8,8.9,13.3,8.9h31.8
		C463.5,84.7,463.5,91.6,463.5,91.6z M417.2,39.4l-4.9,4.3l-9.5-11l4.9-4.3L417.2,39.4z M420.5,21.5l-6,3.7L404.4,8.9l5.9-3.6
		L420.5,21.5z M435.1,40.3h-15.4v-6.9h18.6V2.6h7v30.8h17.8v6.9h-17.8v7.3l3.2-2.5L463.6,64l-5.3,4.3l-12.9-16.2v28.7h-6.9V40.3
		 M433.6,25.8l-6.3,2.3l-5.7-15.9l6.3-2.3L433.6,25.8z"/>
	<path class="st0" d="M521.7,90.9l-3.6,3.6h-11.6v-7h8V70.2H487c-1.3,10.8-3.9,19.1-7.7,24.9l-5.9-3.8c4.9-7.8,7.4-19.2,7.4-34.1V30
		l-2.5,2.6l-5.1-4.8c7.5-7.8,15.4-18.2,20.2-26.7l6.2,3.5L497,9h16.8l3.4,4.7l-9.2,12.5h13.8L521.7,90.9L521.7,90.9z M507.2,15.5
		h-14.8c-2.8,3.8-5.6,7.3-8.3,10.7h15.3L507.2,15.5z M497.6,63.5V50.8h-9.8c0,6.3-0.1,10.5-0.2,12.7
		C487.7,63.5,497.6,63.5,497.6,63.5z M497.6,44.5V32.9h-9.8v11.6H497.6z M514.5,44.5V32.9h-10.3v11.6H514.5z M514.5,63.5V50.8h-10.3
		v12.7C504.2,63.5,514.5,63.5,514.5,63.5z M567.2,5.4c0,14.7-1.7,24.4-5.3,28.9l-13.3,0.1v-6.8h8.8c1.3-3.4,2.2-8.5,2.5-15.2H547
		c-3,10-9,18-18.1,24l-3.8-5.9c6.9-4.6,11.8-10.8,14.6-18.2h-13.6V5.5L567.2,5.4z"/>
	<path class="st0" d="M620.5,48.4c-1.9,1.1-4,2.1-6,3.1c4.4,8.7,6.7,14.7,6.7,18.1c0,1.7-0.4,3.1-1.1,4.1c-1.5,2.1-4.1,3.2-7.9,3.2
		c-2.4,0-5.9-0.3-10.6-0.8c-4.7-0.6-8.2-0.9-10.5-0.9c-3.6,0-7.3,3-7.3,6.3c0,1.2,0.4,2.2,1.2,3.2c1.4,1.7,5.2,2.5,11.3,2.5
		c3.2,0,6.6-0.2,10.2-0.6l0.7,6c-3.9,0.5-7.3,0.7-10.4,0.7c-12.9,0-19.3-3.9-19.3-11.7c0-3.4,1.4-6.4,4.2-8.8
		c2.8-2.5,5.9-3.7,9.4-3.7c2.9,0,6.8,0.3,11.7,0.9c4.2,0.6,7,0.8,8.6,0.8c2.5,0,3.8-0.6,3.8-1.8c0-2.1-2-7.2-6-15.1
		c-6.7,2.9-12.1,4.3-16.4,4.3c-5.6,0-9.2-2.3-10.6-7c-0.3-0.8-0.4-1.8-0.4-2.7c0-3.2,2-7,6.1-11.5c-3.6-0.6-6.7-1.8-9.2-3.6l3.6-4.7
		c2.4,1.8,4.5,2.8,6.5,2.8c1.5,0,3.3-0.6,5.5-1.6c-1.8-1.6-3.5-3-5.5-4.2l3.3-5.1c2.9,1.8,5.5,3.9,7.8,6.2l2.5-1.4l3,5.1l-1.5,0.9
		c2.3,3.1,5,7.9,8.1,14.5l5.6-3L620.5,48.4z M602.9,41.6c-1.4-2.6-2.8-4.8-4.2-6.7c-7.5,5.5-11.3,9.9-11.3,13.3
		c0,0.5,0.1,0.8,0.3,1.2c0.5,1,1.1,1.8,2.1,2.4c0.6,0.4,1.6,0.6,2.8,0.6c3.3,0,8-1.3,13.8-3.8C605,45.4,603.8,43.1,602.9,41.6z"/>
	<path class="st4" d="M657.8,94.5l-0.1-6.1c7.5-0.2,14-1.5,19.3-4.1c6.6-3.3,10.7-8.1,12.2-14.6c0.3-1.4,0.4-2.7,0.4-4
		c0-3.9-1.3-7.6-3.8-11.1c-3.5-5-8.8-8-15.8-8.9c0.1,0.6,0.1,1.2,0.1,1.8c0,8.1-4.1,17-12.2,26.6l-3.9,4.5c-2.8,3.4-4.6,5.4-5.2,6
		c-2.4,2.3-4.5,3.5-6.5,3.5c-1.8,0-3.5-0.9-5-2.8c-2.3-2.9-3.5-8.1-3.5-15.8c0-1.3,0.1-2.5,0.2-3.6c0.6-6.2,3-11.6,7.2-16.4
		c6.1-6.8,14.1-10.3,24.3-10.3c5.1,0,9.9,1,14.3,3c4.7,2.1,8.5,5.1,11.4,9c3.3,4.5,4.9,9.2,4.9,14.5c0,4.9-1.5,9.6-4.5,14
		C685.4,89.2,674.1,94.1,657.8,94.5z M664.1,45.3c-7.1,0.2-12.8,2.5-17.3,7c-4.5,4.5-6.7,10.3-6.7,17.3c0,5.5,0.9,9.4,2.7,11.7
		c1.2-0.8,3.5-3.2,6.8-7.2c5.2-6,8.5-10,9.8-12.2c3.3-5,4.9-9.8,4.9-14.6C664.4,46.5,664.3,45.9,664.1,45.3z"/>
	<path class="st2" d="M741.3,28.1c-3.8,5.8-8.3,11.6-13.3,17.7l1.8,0.1v49.3h-7.6V52.7c-3.9,4.4-7.6,8.3-11.2,11.9l-5.3-5.3
		c10.8-10.7,20.4-22.4,29.3-35.5L741.3,28.1z M800,21.7h-91v-7.3h42V1.8h8.1v12.6H800V21.7z M798,96.1c-11.6-2.6-21.8-7.7-30.6-15.5
		c-8.1,6.6-17.5,11.6-28.3,15l-2.4-7.2c9.9-3.2,18.2-7.5,25.3-13.1c-5.2-5.8-9-11.3-11.5-16.8l6.9-3c2.1,4.7,5.6,9.5,10.3,14.7
		c8.6-8.4,14.5-18.4,17.5-29.5h-23c-6,9-12.6,17.2-19.2,24.1l-5.4-5.1c9.7-10.4,19.7-24.1,26-36.9l6.7,3.3c-1.1,2.5-2.5,4.9-3.8,7.3
		h28.2c-2.3,16.4-9.5,30.3-21.4,42c7.9,6.8,16.5,11.1,26.5,13.3L798,96.1z"/>
	<path class="st5" d="M562.4,54.2c0,8.3-6.8,15.1-15.1,15.1s-15.1-6.8-15.1-15.1s6.8-15.1,15.1-15.1
		C555.7,39.1,562.4,45.9,562.4,54.2z"/>
	<path class="st6" d="M547.5,41.9c6.8,0,12.3,5.5,12.3,12.3"/>
	<path class="st0" d="M547.3,71.6c-1.2,0-2.4-0.1-3.6-0.4l0.2,24.7h7.1l-0.2-24.7C549.7,71.5,548.6,71.6,547.3,71.6z"/>
	<path class="st0" d="M537.4,80c0,1.2-0.1,2.4-0.4,3.6l24.7-0.2v-7.1L537,76.5C537.3,77.6,537.4,78.8,537.4,80z"/>
	<polyline class="st7" points="536.4,76.5 530.5,79.9 536.4,83.3 	"/>
	<polyline class="st8" points="532,79.1 530.5,79.9 532,80.8 	"/>
	<polyline class="st3" points="40.6,56.2 25.4,48.4 22.2,54.6 34.9,61.2 34.9,61.2 42,64.8 42,64.8 68.4,78.4 71.6,72.3 47.5,59.8 	
		"/>
	<polygon class="st3" points="31.1,38.9 20.9,24 15.1,28 25.4,42.9 	"/>
	<path class="st3" d="M0,5.9v88.9h7.6v-4.6h69.3v5h7.6V5.9H0z M76.9,83.1H7.6v-70h69.3L76.9,83.1L76.9,83.1z"/>
	<polygon class="st3" points="48.7,34 38.8,18.7 33,22.5 42.8,37.8 	"/>
	<path class="st3" d="M174.1,63.1V63h-63.4c-0.4,0-0.7,1.2-0.7,2.7c0,1,0.2,1.8,0.4,2.3H174v1.8h-63.3v2.5v1.6h47v1.6h-47v2.6v1.6
		v1.6h47V83h-47v0.5v1.8v0.8v1.5H174v1.8h-63.3v0.4c-0.4,0-0.7,1.2-0.7,2.7c0,1.5,0.3,2.7,0.7,2.7h63.4V95c2.2-0.5,3.9-7.4,3.9-15.9
		C177.9,70.6,176.2,63.7,174.1,63.1z"/>
	<path class="st3" d="M70.3,20.5l-5,5.3l0.9-8.9l-3.5-0.3l0.9,8.7L60.1,24c-3.8,12.4-7.8,17.6-20.6,29.6l-5.7,4.9
		c-6.3,5.1-12.7,9.5-19.6,12.9l6.1,9c8.4-4.3,16.2-9.6,23.5-15.7l5.4-4.9c12.5-12.2,16.5-18.9,20.5-32.1l-3.1-1.2l5.8-4.1L70.3,20.5
		z M63.1,31.9c-1.8-0.6-2.6-2.6-2-4.3l6.3,2.3C66.8,31.6,64.8,32.5,63.1,31.9z"/>
</g>
</svg>
