<?xml version="1.0" encoding="utf-8"?>
<!-- Generator: Adobe Illustrator 25.4.1, SVG Export Plug-In . SVG Version: 6.00 Build 0)  -->
<svg version="1.1" id="レイヤー_1" xmlns="http://www.w3.org/2000/svg" xmlns:xlink="http://www.w3.org/1999/xlink" x="0px"
	 y="0px" width="180px" height="22px" viewBox="0 0 180 22" style="enable-background:new 0 0 180 22;" xml:space="preserve">
<style type="text/css">
	.st0{fill:#D7BBD8;}
	.st1{fill:#D8BCD9;}
	.st2{fill:#93B3DD;}
	.st3{fill:#B6DBB7;}
	.st4{fill:#FFFFFF;}
	.st5{fill:none;stroke:#D7BBD8;stroke-width:0.3854;stroke-miterlimit:10;}
	.st6{fill:none;stroke:#D7BBD8;stroke-width:0.3854;stroke-linecap:round;stroke-miterlimit:10;}
	.st7{fill:none;stroke:#FFFFFF;stroke-width:0.0963;stroke-linecap:round;stroke-miterlimit:10;}
	.st8{fill:#DDD0E5;stroke:#DDD0E5;stroke-width:0.0963;stroke-linecap:round;stroke-miterlimit:10;}
</style>
<g>
	<path class="st0" d="M104.066,1.023c-0.288-0.176-1.005-0.326-1.433,0.169c-0.405,0.469-0.604,1.368-0.977,2.142
		c-0.097,0.199-0.178,0.379-0.248,0.545l1.337,0.635c0.026-0.065,0.055-0.132,0.092-0.209c0.201-0.418,0.584-0.741,1.034-1.05
		c0.413-0.284,0.79-0.346,0.789-1.236C104.66,1.515,104.302,1.168,104.066,1.023z"/>
	<path class="st1" d="M101.153,4.625c-0.053,0.205-0.089,0.409-0.115,0.633c-0.074,0.64,0.037,1.041,0.313,1.21
		c0.307,0.188,0.894,0.041,1.113-0.686c0.059-0.196,0.08-0.346,0.097-0.488L101.153,4.625z"/>
	<path class="st0" d="M96.816,13.936c-0.1,0.163-0.21,0.314-0.338,0.471c-0.367,0.45-0.695,0.628-0.978,0.556
		c-0.313-0.081-0.586-0.552-0.254-1.149c0.09-0.161,0.174-0.269,0.254-0.369L96.816,13.936z"/>
	<path class="st0" d="M97.318,9.797c0.294,0.075,0.84,0.444,0.788,1.031c-0.05,0.556-0.505,1.248-0.772,1.973
		c-0.068,0.189-0.132,0.353-0.197,0.502l-1.248-0.466c0.026-0.058,0.051-0.119,0.078-0.19c0.144-0.392,0.112-0.843,0.03-1.326
		c-0.075-0.446-0.271-0.727,0.304-1.285C96.628,9.721,97.076,9.735,97.318,9.797z"/>
	<path class="st2" d="M170.987,10.686c-0.111,0.119-0.203,0.25-0.277,0.386c0.71-0.45,1.659-0.386,2.301,0.214
		c0.642,0.601,0.769,1.544,0.366,2.282c0.131-0.084,0.256-0.183,0.367-0.303c0.712-0.761,0.674-1.956-0.088-2.669
		C172.894,9.885,171.699,9.925,170.987,10.686z"/>
	<path class="st3" d="M42.937,12.717H21.966v-1.341h9.711v-1.04h-7.884V8.994h7.884v-1.04H24.37V6.613h7.306v-1.04H21.85V4.231
		h9.826V3.168h-7.514V1.827h7.468V0.231h1.734v1.596h7.214v2.404h2.359v1.341h-2.359v2.381h-7.26v1.04h7.676v1.341h-7.676v1.04
		h9.618V12.717z M38.937,4.231V3.168h-5.618v1.064H38.937z M38.937,6.613v-1.04h-5.618v1.04H38.937z"/>
	<path class="st3" d="M55.159,4.069L53.98,5.11l-2.959-3.306c-1.549,1.873-3.121,3.561-4.763,5.064l-1.087-1.202
		c1.965-1.757,3.676-3.607,5.179-5.549l1.225-0.023L55.159,4.069z M55.483,20.092l-1.341,0.809l-1.179-1.989l-7.121,2.127
		l-0.439-1.48l1.387-0.416V6.59h3.168V4.277h1.572V6.59h2.914v8.254h-6.058v3.838l3.769-1.133l-1.04-1.734l1.341-0.786
		L55.483,20.092z M52.87,10.081V8.139h-4.485v1.942H52.87z M52.87,13.318v-1.896h-4.485v1.896H52.87z M66.766,7.607h-1.549V4.231
		h-8.485v3.329h-1.503V2.751h5.041V0.116h1.642v2.636h4.855V7.607z M65.887,21.086h-1.549v-1.11h-5.387v1.11h-1.572V6.543h7.168
		v5.965h-5.595v1.642h6.936V21.086z M62.997,10.983v-2.89h-4.046v2.89H62.997z M64.338,18.427v-2.728h-5.387v2.728H64.338z"/>
	<path class="st4" d="M79.58,20.602c-1.638,0.366-3.102,0.558-4.393,0.558c-1.638,0-2.852-0.308-3.642-0.925
		c-0.655-0.52-1.021-1.137-1.098-1.888c-0.135-1.599,1.041-3.122,3.545-4.567v-2.813c-0.058-1.252-0.212-2.139-0.501-2.659
		c-0.231-0.424-0.597-0.848-1.118-1.252l0.944-1.079c0.752,0.598,1.252,1.214,1.541,1.85c0.27,0.559,0.424,1.349,0.482,2.351
		c0.039,0.52,0.058,1.464,0.039,2.832c1.137-0.597,2.235-1.117,3.314-1.599l0.501,1.33c-5.106,2.1-7.631,3.95-7.399,5.511
		c0.096,0.559,0.501,0.963,1.252,1.233c0.559,0.212,1.291,0.327,2.158,0.327c1.175,0,2.524-0.173,4.066-0.52L79.58,20.602z"/>
	<path class="st0" d="M90.691,5.456H83.5V3.907h7.191V5.456z M90.113,19.977h-4.694v0.994h-1.572v-7.676h6.266V19.977z
		 M89.905,8.601h-5.826v-1.48h5.826V8.601z M89.905,11.607h-5.826v-1.48h5.826V11.607z M89.951,2.22h-5.78V0.694h5.78V2.22z
		 M88.587,18.45v-3.63h-3.168v3.63H88.587z M104.286,20.37h-7.144c-1.387,0-2.613-0.624-3.653-1.873l-2.012,2.358l-1.179-1.018
		l2.312-2.705v-4.185h-2.081v-1.572h3.63v5.433c0.809,1.341,1.804,2.012,2.983,2.012h7.144V20.37z M93.859,8.624l-1.11,0.971
		l-2.127-2.474l1.109-0.971L93.859,8.624z M94.621,4.601L93.28,5.433l-2.289-3.676l1.318-0.809L94.621,4.601z M97.904,8.832h-3.468
		V7.283h4.185V0.347h1.572v6.936h4v1.549h-4v1.642l0.717-0.555l3.399,4.254l-1.202,0.971l-2.913-3.653v6.451h-1.549V8.82
		 M97.558,5.572l-1.41,0.508l-1.272-3.584l1.41-0.508L97.558,5.572z"/>
	<path class="st0" d="M117.376,20.208l-0.809,0.809h-2.613v-1.572h1.803V15.56h-6.173c-0.301,2.428-0.879,4.301-1.734,5.595
		l-1.318-0.855c1.11-1.757,1.665-4.324,1.665-7.676V6.52l-0.555,0.578l-1.156-1.086c1.688-1.757,3.468-4.093,4.555-6.012
		l1.388,0.786l-0.601,0.994h3.769l0.763,1.064l-2.081,2.821h3.098V20.208z M114.116,3.26h-3.329
		c-0.624,0.855-1.249,1.642-1.873,2.404h3.445L114.116,3.26z M111.965,14.058v-2.867h-2.197c0,1.41-0.023,2.358-0.046,2.867H111.965
		z M111.965,9.78V7.168h-2.197V9.78H111.965z M115.757,9.78V7.168h-2.312V9.78H115.757z M115.757,14.058v-2.867h-2.312v2.867
		H115.757z M127.618,0.971c0,3.306-0.393,5.48-1.202,6.497l-2.982,0.023V5.965h1.989c0.3-0.763,0.485-1.919,0.555-3.422h-2.913
		c-0.671,2.243-2.035,4.046-4.069,5.411l-0.855-1.318c1.549-1.041,2.659-2.428,3.283-4.093h-3.052V0.994L127.618,0.971z"/>
	<path class="st0" d="M139.611,10.643c-0.437,0.25-0.895,0.479-1.353,0.708c0.999,1.956,1.499,3.309,1.499,4.079
		c0,0.374-0.083,0.687-0.25,0.916c-0.333,0.479-0.916,0.728-1.769,0.728c-0.541,0-1.332-0.062-2.393-0.187
		c-1.061-0.146-1.852-0.208-2.372-0.208c-0.811,0-1.644,0.686-1.644,1.415c0,0.271,0.083,0.499,0.271,0.728
		c0.312,0.374,1.165,0.562,2.539,0.562c0.728,0,1.477-0.041,2.289-0.146l0.167,1.353c-0.874,0.104-1.644,0.167-2.331,0.167
		c-2.893,0-4.35-0.874-4.35-2.643c0-0.77,0.312-1.436,0.937-1.977c0.624-0.562,1.332-0.832,2.123-0.832
		c0.645,0,1.519,0.063,2.622,0.208c0.937,0.125,1.582,0.187,1.935,0.187c0.562,0,0.853-0.125,0.853-0.396
		c0-0.478-0.458-1.623-1.353-3.392c-1.498,0.645-2.726,0.978-3.684,0.978c-1.269,0-2.06-0.52-2.393-1.582
		c-0.062-0.187-0.083-0.396-0.083-0.604c0-0.728,0.458-1.581,1.374-2.58c-0.812-0.125-1.499-0.396-2.06-0.812l0.812-1.061
		c0.541,0.416,1.019,0.624,1.457,0.624c0.333,0,0.749-0.125,1.248-0.354c-0.395-0.354-0.791-0.666-1.228-0.937l0.749-1.144
		c0.645,0.416,1.228,0.874,1.748,1.394l0.562-0.312l0.666,1.145l-0.333,0.208c0.52,0.687,1.124,1.769,1.831,3.267l1.27-0.686
		L139.611,10.643z M135.657,9.124c-0.312-0.583-0.624-1.082-0.936-1.499c-1.686,1.228-2.539,2.227-2.539,2.997
		c0,0.104,0.021,0.187,0.062,0.271c0.104,0.229,0.25,0.416,0.479,0.541c0.146,0.083,0.354,0.125,0.624,0.125
		c0.749,0,1.79-0.291,3.101-0.853C136.115,9.977,135.845,9.457,135.657,9.124z"/>
	<path class="st4" d="M148.011,21.025l-0.019-1.368c1.695-0.039,3.141-0.347,4.335-0.925c1.484-0.732,2.409-1.83,2.756-3.295
		c0.058-0.308,0.096-0.616,0.096-0.905c0-0.867-0.289-1.715-0.848-2.505c-0.79-1.117-1.985-1.792-3.545-2.004
		c0.019,0.135,0.019,0.27,0.019,0.405c0,1.83-0.925,3.815-2.756,5.993l-0.867,1.002c-0.636,0.771-1.041,1.214-1.175,1.349
		c-0.54,0.52-1.021,0.79-1.465,0.79c-0.405,0-0.79-0.212-1.118-0.636c-0.52-0.655-0.79-1.83-0.79-3.545
		c0-0.289,0.019-0.559,0.038-0.809c0.135-1.387,0.675-2.62,1.619-3.681c1.368-1.541,3.18-2.312,5.473-2.312
		c1.156,0,2.235,0.231,3.218,0.674c1.06,0.482,1.908,1.156,2.563,2.024c0.732,1.002,1.099,2.081,1.099,3.256
		c0,1.098-0.328,2.158-1.002,3.16C154.215,19.83,151.672,20.928,148.011,21.025z M149.417,9.964
		c-1.599,0.038-2.891,0.559-3.892,1.58c-1.002,1.021-1.503,2.313-1.503,3.892c0,1.233,0.212,2.12,0.616,2.64
		c0.27-0.173,0.79-0.713,1.541-1.619c1.176-1.349,1.908-2.255,2.216-2.736c0.732-1.117,1.098-2.216,1.098-3.276
		C149.494,10.234,149.475,10.08,149.417,9.964z"/>
	<path class="st2" d="M166.798,6.081c-0.855,1.295-1.873,2.613-2.982,3.977l0.416,0.023v11.098h-1.711V11.63
		c-0.878,0.994-1.711,1.873-2.52,2.682l-1.202-1.202c2.428-2.404,4.601-5.04,6.59-7.977L166.798,6.081z M180,4.647h-20.485V3.006
		h9.457V0.162h1.826v2.844H180V4.647z M179.561,21.387c-2.613-0.578-4.902-1.734-6.89-3.491c-1.827,1.48-3.931,2.612-6.359,3.376
		l-0.532-1.619c2.22-0.717,4.093-1.688,5.688-2.937c-1.179-1.295-2.035-2.543-2.59-3.769l1.549-0.671
		c0.463,1.063,1.249,2.127,2.312,3.306c1.942-1.896,3.26-4.139,3.93-6.636h-5.179c-1.341,2.035-2.844,3.861-4.324,5.433
		l-1.225-1.156c2.173-2.335,4.439-5.433,5.85-8.3l1.503,0.74c-0.254,0.555-0.555,1.11-0.855,1.642h6.335
		c-0.509,3.699-2.127,6.821-4.809,9.456c1.78,1.526,3.722,2.497,5.965,2.983L179.561,21.387z"/>
	<path class="st5" d="M126.548,11.966c0,1.877-1.521,3.398-3.398,3.398c-1.877,0-3.399-1.521-3.399-3.398
		c0-1.877,1.522-3.399,3.399-3.399C125.027,8.567,126.548,10.088,126.548,11.966z"/>
	<path class="st6" d="M123.189,9.193c1.531,0,2.772,1.241,2.772,2.773"/>
	<path class="st0" d="M123.15,15.869c-0.274,0-0.542-0.028-0.801-0.081l0.039,5.557h1.603l-0.039-5.557
		C123.692,15.841,123.424,15.869,123.15,15.869z"/>
	<path class="st0" d="M120.912,17.766c0,0.275-0.028,0.543-0.08,0.802l5.557-0.039v-1.602l-5.557,0.039
		C120.885,17.224,120.912,17.492,120.912,17.766z"/>
	<polyline class="st7" points="120.691,16.983 119.368,17.747 120.691,18.511 	"/>
	<polyline class="st8" points="119.704,17.553 119.368,17.747 119.704,17.941 	"/>
	<polyline class="st3" points="9.132,12.416 5.711,10.659 4.994,12.046 7.861,13.526 7.861,13.526 9.456,14.335 9.456,14.335 
		15.398,17.41 16.115,16.023 10.682,13.225 	"/>
	<polygon class="st3" points="7.005,8.509 4.693,5.156 3.399,6.058 5.711,9.41 	"/>
	<path class="st3" d="M0,1.087v19.999h1.711v-1.041h15.584v1.133h1.711V1.087H0z M17.294,18.45H1.711V2.705h15.584V18.45z"/>
	<polygon class="st3" points="10.959,7.422 8.74,3.977 7.422,4.832 9.641,8.277 	"/>
	<path class="st3" d="M39.163,13.97v-0.023H24.906c-0.085,0-0.155,0.269-0.155,0.6c0,0.226,0.034,0.415,0.081,0.518h14.307v0.4
		H24.906v0.561v0.359h10.57v0.369h-10.57v0.592v0.361v0.353h10.57v0.369h-10.57v0.12v0.4v0.185v0.332h14.233v0.4H24.906v0.088
		c-0.085,0-0.155,0.269-0.155,0.6c0,0.332,0.07,0.6,0.155,0.6h14.257v-0.023c0.487-0.119,0.873-1.668,0.873-3.582
		C40.035,15.639,39.649,14.089,39.163,13.97z"/>
	<path class="st3" d="M15.826,4.386l-1.119,1.193l0.213-2.011l-0.777-0.062l0.205,1.963l-0.822-0.312
		c-0.855,2.798-1.756,3.955-4.624,6.66l-1.272,1.11c-1.41,1.156-2.867,2.127-4.416,2.913l1.381,2.027
		c1.896-0.971,3.653-2.15,5.295-3.538l1.226-1.11c2.821-2.751,3.718-4.245,4.62-7.227l-0.697-0.278l1.303-0.916L15.826,4.386z
		 M14.189,6.938c-0.394-0.145-0.595-0.582-0.45-0.975l1.426,0.525C15.019,6.882,14.582,7.083,14.189,6.938z"/>
</g>
<g>
</g>
<g>
</g>
<g>
</g>
<g>
</g>
<g>
</g>
<g>
</g>
<g>
</g>
<g>
</g>
<g>
</g>
<g>
</g>
<g>
</g>
<g>
</g>
<g>
</g>
<g>
</g>
<g>
</g>
</svg>
