<?xml version="1.0" encoding="utf-8"?>
<!-- Generator: Adobe Illustrator 25.4.1, SVG Export Plug-In . SVG Version: 6.00 Build 0)  -->
<svg version="1.1" id="レイヤー_1" xmlns="http://www.w3.org/2000/svg" xmlns:xlink="http://www.w3.org/1999/xlink" x="0px"
	 y="0px" width="20px" height="225px" viewBox="0 0 20 225" style="enable-background:new 0 0 20 225;" xml:space="preserve">
<style type="text/css">
	.st0{fill:#FFFFFF;}
</style>
<g>
	<path class="st0" d="M4.789,8.971c-0.04,0.44-0.06,0.62-0.06,0.9c0,2.38,1.5,3.5,4.721,3.5c1.58,0,3.241-0.28,4.421-0.72
		c0.12-0.06,0.24-0.08,0.34-0.08c0.3,0,0.76,0.18,1.1,0.4c0.28,0.22,0.44,0.46,0.44,0.7c0,0.3-0.22,0.52-0.64,0.62
		c-0.92,0.24-2.88,0.4-4.661,0.4c-2.24,0-3.661-0.28-4.661-0.96c-1-0.64-1.661-1.9-1.661-3.161c0-0.48,0.1-1.02,0.32-1.68
		L4.789,8.971z M5.409,1.07C6.429,1.75,7.13,1.95,8.469,1.95c1.32,0,3.001-0.24,4.161-0.6c0.14-0.04,0.3-0.08,0.36-0.08
		c0.521,0,1.201,0.6,1.201,1.04c0,0.34-0.12,0.4-1.46,0.7c-0.78,0.16-0.96,0.24-2.921,0.98c-0.48,0.18-0.48,0.18-1.64,0.68
		c-0.4,0.16-0.4,0.18-0.78,0.32l-0.14-0.3c0.62-0.36,0.94-0.56,1.46-0.84c1.36-0.74,1.36-0.74,1.681-0.94
		C9.95,2.95,9.25,2.97,8.89,2.97c-0.74,0-1.661-0.22-2.281-0.54c-0.52-0.28-0.84-0.56-1.4-1.16L5.409,1.07z"/>
	<path class="st0" d="M9.67,34.953c2.16-0.64,3.541-1.46,4.681-2.781c1.18-1.34,1.781-2.98,1.781-4.821
		c0-1.94-0.78-3.48-2.261-4.421c-0.88-0.58-2.2-0.92-3.461-0.92c-0.24,0-0.38,0-0.7,0.04c0.48,0.7,0.62,1.08,0.62,1.66
		c0,1.561-1.121,4.481-2.641,6.921c-1.26,2-2.241,2.981-2.981,2.981c-0.34,0-0.66-0.16-0.88-0.42c-0.18-0.24-0.22-0.32-0.56-1.28
		c-0.18-0.52-0.3-0.76-0.88-1.88c-0.32-0.64-0.46-1.18-0.46-1.82c0-1.26,0.68-2.741,1.8-3.961c1.62-1.72,4.261-2.8,6.881-2.8
		c2.021,0,3.881,0.66,5.161,1.84s1.92,2.761,1.92,4.701c0,2.5-1.46,4.721-3.981,6.061c-1.16,0.62-2.2,0.94-3.901,1.24L9.67,34.953z
		 M3.089,28.731c0,0.96,0.3,1.94,0.8,2.641c0.28,0.36,0.54,0.58,0.76,0.58c0.44,0,1.4-1.08,2.381-2.641
		c1.48-2.36,2.541-4.941,2.541-6.181c0-0.3-0.06-0.5-0.28-1C5.809,22.75,3.089,25.651,3.089,28.731z"/>
	<path class="st0" d="M0.648,42.35c0.58,0.12,0.88,0.16,1.54,0.16h2.701c0.5-0.54,0.64-0.7,1.14-1.22c0.7,0.56,0.9,0.74,1.48,1.34
		c0.06,0.08,0.1,0.16,0.1,0.2c0,0.1-0.08,0.14-0.24,0.14H2.188c-0.7,0-0.88,0.02-1.4,0.12L0.648,42.35z M1.328,39.55
		c0.44,0.12,0.8,0.16,1.4,0.16h1.761c0.38-0.48,0.5-0.62,0.94-1.1c0.6,0.52,0.78,0.68,1.36,1.22c0.06,0.06,0.1,0.12,0.1,0.16
		c0,0.12-0.1,0.18-0.32,0.18H2.728c-0.48,0-0.74,0.02-1.3,0.12L1.328,39.55z M1.408,45.01c0.48,0.12,0.84,0.16,1.32,0.16h1.94
		c0.38-0.46,0.5-0.6,0.9-1.06c0.62,0.5,0.78,0.66,1.32,1.18c0.06,0.06,0.1,0.12,0.1,0.16c0,0.1-0.1,0.18-0.22,0.18H2.728
		c-0.46,0-0.7,0.02-1.2,0.12L1.408,45.01z M1.408,47.711c0.54,0.14,0.94,0.18,1.6,0.18h1.541c0.4-0.48,0.52-0.62,0.92-1.061
		c0.6,0.48,0.78,0.64,1.3,1.161c0.08,0.08,0.12,0.14,0.12,0.2c0,0.1-0.1,0.16-0.28,0.16H3.009c-0.66,0-0.92,0.02-1.48,0.12
		L1.408,47.711z M2.728,56.533c-0.04,0.2-0.18,0.26-0.66,0.3c-0.14,0-0.24,0.02-0.26,0.02s-0.04,0-0.06,0c-0.2,0-0.3-0.1-0.3-0.34
		c0.02-1.42,0.02-1.42,0.02-5.001c0-0.88,0-1.16-0.04-1.96c0.68,0.38,0.88,0.5,1.48,0.98h1.78c0.34-0.4,0.44-0.521,0.78-0.9
		c0.5,0.38,0.66,0.5,1.14,0.9c0.14,0.16,0.18,0.2,0.18,0.24c0,0.08-0.08,0.14-0.66,0.52v2.141c0,0.3,0,0.3,0.02,1.86
		c0,0.1,0,0.24,0,0.36c0,0.12,0,0.24,0,0.44c-0.02,0.16-0.06,0.24-0.2,0.28c-0.16,0.06-0.52,0.12-0.76,0.12
		c-0.18,0-0.26-0.06-0.3-0.22v-0.66H2.728V56.533z M2.728,55.153h2.161v-4.161H2.728V55.153z M8.41,47.711
		c0.34-0.38,0.46-0.5,0.8-0.84c0.48,0.4,0.62,0.52,1.101,0.9c0.12,0.12,0.16,0.2,0.16,0.28c0,0.14-0.04,0.16-0.62,0.521v4.241
		c0.18,0.7,0.4,1,1,1.4c0.8,0.5,1.56,0.66,3.081,0.66c2.141,0,4.081-0.12,5.561-0.32v0.3c-0.68,0.18-1.02,0.58-1.12,1.4
		c-0.76,0.06-1.18,0.08-2.36,0.08c-3.121,0-4.001-0.18-5.041-1.02c-0.8-0.64-1.221-1.24-1.621-2.3c-0.6,0.92-0.76,1.12-1.92,2.46
		c0,0.06,0,0.14,0,0.16c0,0.54-0.06,0.72-0.2,0.72c-0.18,0-0.32-0.3-0.94-1.94c0.58-0.18,1.48-0.7,2.26-1.32v-4.921h-0.58
		c-0.3,0-0.48,0.02-0.88,0.1l-0.14-0.7c0.26,0.08,0.66,0.14,1.02,0.14H8.41z M7.449,39.909c0.64,0.54,1.4,1.36,2,2.181
		c0.24,0.34,0.42,0.8,0.42,1.06c0,0.54-0.44,1.28-0.78,1.28c-0.18,0-0.24-0.14-0.38-0.8c-0.2-1.02-0.7-2.18-1.46-3.5L7.449,39.909z
		 M14.911,47.211c0.88,0.6,1.781,1.28,2.501,1.92c0.84,0.74,1.06,1.08,1.06,1.66c0,0.68-0.26,1.34-0.5,1.34
		c-0.18,0-0.3-0.16-0.541-0.72c-0.48-1.14-1.52-2.701-2.521-3.841l-0.02,2.941c0,0.8,0,1.2,0.06,3.38c-0.04,0.22-0.24,0.3-0.8,0.3
		c-0.36,0-0.44-0.06-0.46-0.3c0.06-2,0.12-4.141,0.12-4.821v-1.541c-0.58,1.36-0.94,2.021-1.68,3.061
		c-0.62,0.84-0.98,1.221-1.78,1.9l-0.22-0.2c1.36-1.721,2.34-3.621,3.221-6.222H11.77c-0.72,0-1.14,0.04-1.5,0.16l-0.14-0.82
		c0.46,0.14,0.94,0.2,1.6,0.2h2.081V41.09c0-0.58,0-0.76-0.08-2.18c2.021,0.24,2.021,0.24,2.021,0.44c0,0.18-0.24,0.32-0.82,0.46
		v5.801h1.621c0.46-0.5,0.6-0.66,1.04-1.18c0.58,0.56,0.76,0.74,1.28,1.28c0.1,0.08,0.14,0.18,0.14,0.22c0,0.08-0.08,0.14-0.18,0.14
		h-3.921V47.211z M10.85,39.709c0.6,0.72,1.16,1.48,1.56,2.061c0.42,0.62,0.58,1,0.58,1.4c0,0.7-0.5,1.561-0.88,1.561
		c-0.18,0-0.28-0.18-0.34-0.68c-0.16-1.42-0.5-2.601-1.18-4.181L10.85,39.709z M15.371,44.671c0.46-0.84,0.7-1.4,1.24-3.121
		c0.28-0.9,0.34-1.141,0.46-1.841c1.86,0.581,2.021,0.64,2.021,0.86c0,0.16-0.1,0.2-0.84,0.28c-0.82,1.5-1.7,2.86-2.641,3.96
		L15.371,44.671z"/>
	<path class="st0" d="M2.948,62.17c0.96,0.76,1.42,0.94,2.5,0.94c0.64,0,1.22-0.08,2.141-0.26c0.44-0.86,0.7-1.601,0.7-2.041
		c0-0.54-0.38-0.86-1.42-1.121c0.34-0.18,0.52-0.22,0.9-0.22c0.46,0,1.04,0.12,1.56,0.34c0.5,0.2,0.72,0.42,0.72,0.66
		c0,0.14-0.08,0.28-0.32,0.58c-0.18,0.24-0.42,0.6-0.581,0.82c-0.36,0.58-0.36,0.58-0.5,0.78c1.681-0.48,2.221-0.72,2.881-1.28
		c0.12-0.1,0.24-0.14,0.38-0.14c0.78,0,1.34,0.28,1.34,0.66c0,0.24-0.26,0.44-0.86,0.64c-1.78,0.58-2.74,0.82-4.361,1.14
		c-0.36,0.5-0.6,0.86-1.06,1.561c-0.54,0.84-0.7,1.06-1.08,1.6c1.12-0.58,1.82-0.8,2.58-0.8c1.181,0,2.061,0.8,2.241,2
		c0.34-0.16,0.34-0.16,1.96-0.98c1.98-1,2.46-1.32,2.46-1.68c0-0.34-0.34-0.7-0.92-0.94c0.22-0.1,0.32-0.12,0.46-0.12
		c0.88,0,2.26,1.22,2.26,2.021c0,0.36-0.16,0.5-0.72,0.62c-1.2,0.28-3.801,1.28-5.361,2.061c0.02,0.64,0.02,0.76,0.02,1.62
		c0,0.9-0.06,1.521-0.16,1.721c-0.1,0.22-0.32,0.38-0.56,0.38c-0.38,0-0.64-0.26-0.64-0.6c0-0.1,0-0.2,0.02-0.34
		c0.08-0.581,0.12-1.26,0.14-2.141c-1.24,0.68-1.821,1.08-2.341,1.58c-0.66,0.64-0.98,1.26-0.98,1.861c0,1.08,1.1,1.6,3.341,1.6
		c1.4,0,2.8-0.2,4.021-0.56c0.14-0.04,0.28-0.06,0.38-0.06c0.62,0,1.4,0.56,1.4,1c0,0.26-0.22,0.46-0.621,0.541
		c-0.82,0.16-2.34,0.28-3.581,0.28c-1.88,0-3.261-0.2-4.061-0.58c-1.02-0.48-1.48-1.14-1.48-2.121c0-0.94,0.46-1.8,1.44-2.74
		c0.521-0.5,1.161-0.96,2.481-1.781c-0.02-0.84-0.08-1.16-0.28-1.58c-0.18-0.36-0.58-0.6-1.02-0.6c-1.32,0-2.901,1.06-4.341,2.9
		c-0.38,0.52-0.54,0.64-0.74,0.64c-0.32,0-0.541-0.42-0.541-1.06c0-0.42,0.02-0.44,0.581-0.9c1.42-1.12,2.3-2.16,3.721-4.301
		c-0.66,0.1-0.92,0.12-1.34,0.12c-1.36,0-2.061-0.36-2.981-1.541L2.948,62.17z"/>
	<path class="st0" d="M0.608,82.49c0.5,0.14,0.92,0.18,1.66,0.18h3.001c0.46-0.58,0.6-0.74,1.12-1.28c0.66,0.58,0.84,0.76,1.46,1.4
		c0.08,0.1,0.12,0.16,0.12,0.22c0,0.08-0.08,0.12-0.24,0.12H2.268c-0.66,0-0.96,0.02-1.52,0.12L0.608,82.49z M1.228,79.729
		c0.5,0.1,0.86,0.14,1.46,0.14h2.34c0.44-0.5,0.56-0.66,1-1.16c0.6,0.54,0.78,0.72,1.36,1.3c0.08,0.08,0.1,0.14,0.1,0.2
		s-0.06,0.12-0.16,0.12H2.689c-0.621,0-0.82,0.02-1.32,0.1L1.228,79.729z M2.669,96.333c-0.02,0.16-0.06,0.22-0.22,0.26
		c-0.08,0.04-0.56,0.08-0.76,0.08c-0.22,0-0.3-0.06-0.32-0.24c0.04-0.86,0.04-1.26,0.04-2.38c0-2.701,0-3.321-0.06-4.361
		c0.66,0.44,0.86,0.58,1.46,1h2.221c0.36-0.44,0.46-0.58,0.84-1c0.54,0.44,0.7,0.58,1.18,1c0.12,0.12,0.16,0.18,0.16,0.22
		c0,0.1-0.18,0.24-0.66,0.54c0,0.72,0,1.14,0,1.621c0,0.8,0,0.8,0.08,2.74c-0.02,0.26-0.26,0.34-1.08,0.34
		c-0.2,0-0.26-0.06-0.28-0.22v-0.3H2.669V96.333z M1.368,87.871c0.46,0.1,0.7,0.12,1.46,0.12h1.86
		c0.44-0.48,0.581-0.641,1.021-1.101c0.64,0.52,0.82,0.7,1.4,1.24c0.06,0.06,0.08,0.12,0.08,0.18s-0.1,0.14-0.18,0.14H2.828
		c-0.68,0-0.86,0.02-1.34,0.12L1.368,87.871z M1.388,85.151c0.74,0.14,0.88,0.16,1.62,0.16h1.8c0.42-0.5,0.56-0.66,1-1.141
		c0.62,0.521,0.8,0.7,1.42,1.261c0.06,0.06,0.1,0.14,0.1,0.2c0,0.08-0.1,0.14-0.2,0.14H3.009c-0.66,0-0.94,0.02-1.48,0.1
		L1.388,85.151z M2.669,95.173h2.601v-4.021H2.669V95.173z M6.129,96.633c1.74-0.96,2.721-1.94,3.441-3.441
		c0.56-1.18,0.8-2.44,0.8-4.181c0-0.3,0-0.42-0.02-0.74c1.9,0.36,2.04,0.4,2.04,0.58c0,0.14-0.2,0.24-0.7,0.34
		c-0.2,2.44-0.5,3.521-1.3,4.721c-0.581,0.9-1.46,1.701-2.521,2.301c-0.46,0.24-0.78,0.4-1.56,0.72L6.129,96.633z M9.09,87.091
		c-0.08,1.06-0.24,1.64-0.601,2.24c-0.2,0.32-0.44,0.521-0.64,0.521c-0.32,0-0.58-0.521-0.58-1.101c0-0.26,0.06-0.34,0.5-0.66
		c0.22-0.18,0.52-0.6,0.68-1c0.18-0.44,0.24-0.78,0.26-1.5h0.3c0.08,0.52,0.1,0.68,0.1,1.041h7.642c0.38-0.46,0.5-0.6,0.88-1.041
		c0.66,0.54,0.86,0.72,1.48,1.3c0.1,0.12,0.14,0.18,0.14,0.24c0,0.16-0.24,0.22-1.161,0.34c-0.18,0.18-0.34,0.34-0.44,0.44
		c-0.86,0.86-0.86,0.86-1.38,1.28l-0.18-0.14c0.46-0.92,0.58-1.22,0.8-1.96H9.09z M16.112,81.39c0.44-0.56,0.56-0.72,1-1.26
		c0.74,0.6,0.98,0.8,1.66,1.38c0.1,0.1,0.14,0.16,0.14,0.2c0,0.06-0.08,0.14-0.14,0.14h-5.401v2.46h2.32
		c0.44-0.54,0.58-0.7,1.041-1.22c0.68,0.6,0.88,0.78,1.56,1.38c0.08,0.1,0.1,0.14,0.1,0.18c0,0.06-0.06,0.12-0.12,0.12H10.27
		c-0.88,0-1.26,0.02-1.9,0.12l-0.14-0.74c0.62,0.16,0.7,0.16,2.041,0.16h1.82v-2.46H9.55c-0.72,0-0.96,0.02-1.8,0.14l-0.16-0.78
		c0.88,0.16,1.04,0.18,1.96,0.18h2.541v-1.26c0-0.46-0.02-0.78-0.12-1.46c0.44,0.08,0.8,0.12,1.04,0.16
		c0.94,0.12,1.221,0.22,1.221,0.36c0,0.18-0.24,0.32-0.86,0.52v1.681H16.112z M13.371,89.931c0-0.76,0-1.04-0.06-1.72
		c1.78,0.28,2.041,0.34,2.041,0.52c0,0.14-0.18,0.22-0.7,0.38v5.661c0,0.18,0,0.2,0.08,0.24c0.1,0.04,0.46,0.06,1,0.06
		c0.04,0,0.14,0,0.24,0c0.46-0.02,0.74-0.02,0.82-0.02c0.4,0,0.5-0.08,0.66-0.52c0.2-0.54,0.5-1.64,0.92-3.44l0.3,0.06l-0.18,3.38
		l-0.02,0.08c0,0.08,0.14,0.22,0.3,0.28c0.22,0.08,0.3,0.12,0.36,0.2c0.06,0.08,0.14,0.3,0.14,0.36c0,0.26-0.3,0.52-0.64,0.62
		c-0.28,0.06-1.44,0.18-1.9,0.18c-2.061,0-2.641-0.02-2.901-0.14c-0.32-0.16-0.44-0.34-0.46-0.78v-2.081V89.931z"/>
	<path class="st0" d="M8.91,116.053c1.46-1.18,2.12-1.84,2.84-2.841c0.72-1,1.201-1.94,1.781-3.46
		c-1.741-0.92-3.461-1.36-5.741-1.46c-1.221,2.221-1.741,3.061-2.421,3.961c-0.74,0.92-1.36,1.38-1.92,1.38
		c-0.84,0-1.54-0.96-1.54-2.121c0-1.02,0.5-2.041,1.36-2.761c0.88-0.74,2.2-1.2,3.801-1.32c0.28-0.48,0.32-0.62,1.42-3.141
		c0.64-1.52,0.72-1.74,1.041-2.82c-0.48,0.12-1.86,0.56-2.881,0.92c-0.32,0.1-0.48,0.14-0.66,0.14c-0.62,0-1.26-0.98-1.26-1.94
		c0-0.2,0.04-0.3,0.22-0.46c0.4,0.92,0.76,1.22,1.5,1.22c0.52,0,1.14-0.1,2.12-0.34c0.521-0.14,0.6-0.18,0.88-0.42
		c0.12-0.14,0.24-0.18,0.42-0.18c0.44,0,1.44,1.061,1.44,1.561c0,0.16-0.08,0.3-0.3,0.46c-0.46,0.38-0.64,0.66-2.021,3.401
		c-0.54,1.08-0.62,1.24-0.82,1.62c2.021,0.1,3.761,0.44,5.741,1.141c0.34-1.041,0.66-2.581,0.66-3.221c0-0.541-0.28-0.9-1.04-1.38
		c0.14-0.1,0.22-0.12,0.36-0.12c0.34,0,0.8,0.16,1.4,0.46c0.64,0.32,0.94,0.64,0.94,1c0,0.2-0.02,0.3-0.18,0.7
		c-0.06,0.14-0.18,0.56-0.48,1.5c-0.1,0.36-0.18,0.6-0.46,1.521c2.4,1.2,3.041,1.78,3.041,2.84c0,0.4-0.2,0.72-0.46,0.72
		c-0.18,0-0.32-0.1-0.68-0.42c-0.64-0.64-1.3-1.16-2.38-1.88c-0.88,1.92-1.5,2.88-2.561,3.901c-0.9,0.86-1.72,1.44-3,2.061
		L8.91,116.053z M2.768,111.032c0,0.74,0.42,1.44,0.86,1.44c0.66,0,1.5-1.16,3.041-4.201C4.109,108.552,2.768,109.491,2.768,111.032
		z"/>
	<path class="st0" d="M7.469,123.51c0.24-0.32,0.3-0.42,0.58-0.72c0.48,0.3,0.62,0.4,1.061,0.72c0.22,0.14,0.32,0.26,0.32,0.34
		c0,0.14-0.2,0.3-0.7,0.56v7.762l0.02,1.38c0,0.24,0,0.66,0,1.16c-0.02,0.74-0.08,0.96-0.36,1.22c-0.28,0.26-0.64,0.4-1.781,0.68
		c-0.04-0.58-0.12-0.78-0.38-0.94c-0.32-0.2-0.78-0.32-2-0.521l0.04-0.28c1.24,0.06,1.34,0.08,2.861,0.14
		c0.36,0,0.46-0.06,0.46-0.28v-4.081H3.229c-0.08,1-0.18,1.521-0.44,2.301c-0.48,1.44-0.96,2.28-2.08,3.5l-0.2-0.2
		c0.8-1.32,1.14-2.261,1.4-3.861c0.18-1.061,0.3-3.601,0.3-6.501c0-0.74,0-0.74-0.04-2.101c-0.38,0.44-0.64,0.68-1.38,1.3l-0.2-0.22
		c1.06-1.22,1.64-2.16,2.521-4.121c0.5-1.12,0.68-1.621,0.9-2.4c1.32,0.34,2.061,0.6,2.061,0.76c0,0.18-0.38,0.3-1,0.36
		c-0.28,0.54-0.32,0.62-0.64,1.16h1.94c0.28-0.42,0.36-0.54,0.66-0.9c0.5,0.4,0.66,0.521,1.12,0.9c0.26,0.24,0.34,0.34,0.34,0.44
		c0,0.12-0.14,0.18-0.58,0.26c-0.04,0-0.06,0-0.32,0.06c-0.52,0.58-0.64,0.7-0.94,1.06c-0.48,0.54-0.52,0.58-0.98,1.06H7.469z
		 M5.249,123.51c0.44-0.8,0.44-0.8,1.12-2.42H4.149c-0.5,0.8-0.86,1.32-1.42,2.061c0.16,0.12,0.26,0.18,0.541,0.36H5.249z
		 M4.909,130.192v-3.041H3.388c-0.04,1.48-0.08,2.16-0.14,3.041H4.909z M3.408,123.97c0,0.3,0,0.48,0,0.68
		c0,0.48-0.02,1.34-0.02,2.041h1.521v-2.721H3.408z M5.949,126.691H7.59v-2.721H5.949V126.691z M5.949,127.151v3.041H7.59v-3.041
		H5.949z M14.091,120.29c-0.42,1.72-0.7,2.36-1.44,3.36c-0.88,1.18-1.78,1.9-3.421,2.701l-0.16-0.22c1.24-0.88,2.04-1.76,2.68-2.92
		c0.48-0.88,0.68-1.5,0.94-2.92h-0.34c-1.16,0-1.58,0.02-2.68,0.12l-0.14-0.8c0.96,0.14,1.94,0.22,2.82,0.22h4.221
		c0.24-0.36,0.32-0.46,0.6-0.82c0.54,0.34,0.7,0.46,1.18,0.82c0.06,0.08,0.12,0.14,0.16,0.18c0.1,0.08,0.16,0.18,0.16,0.26
		c0,0.14-0.2,0.28-0.74,0.5c-0.32,4.141-0.42,4.341-2.581,4.781c-0.18-0.76-0.46-0.92-2.341-1.3l0.02-0.28
		c0.58,0.04,0.58,0.04,2.021,0.12c0.16,0.02,0.3,0.02,0.46,0.02c0.54,0,0.68-0.06,0.78-0.4c0.16-0.52,0.24-1.22,0.38-3.42H14.091z
		 M13.511,128.592c0-1.94,0-1.94-0.08-2.741c0.88,0.08,1.72,0.18,1.88,0.24c0.08,0.02,0.16,0.1,0.16,0.18
		c0,0.06-0.06,0.14-0.14,0.18s-0.16,0.08-0.28,0.14c-0.08,0.02-0.2,0.06-0.36,0.12c0,0.56,0,0.84,0,1.16v0.72h1.6
		c0.42-0.561,0.54-0.74,0.98-1.26c0.62,0.62,0.8,0.84,1.4,1.44c0.04,0.06,0.06,0.12,0.06,0.16c0,0.08-0.1,0.12-0.28,0.12h-3.761
		c0,0.64,0,1.52,0.02,2.661h2.1c0.44-0.62,0.601-0.8,1.061-1.38c0.64,0.66,0.86,0.88,1.5,1.54c0.02,0.08,0.06,0.14,0.06,0.18
		c0,0.08-0.08,0.12-0.32,0.12h-4.401c0,3.121,0,3.121,0.04,4.221c0,0.16-0.02,0.22-0.1,0.26c-0.08,0.06-0.6,0.14-0.92,0.14
		c-0.24,0-0.32-0.08-0.32-0.3c0,0,0-0.04,0-0.06c0.04-1.02,0.04-1.02,0.08-4.261H11.35c-0.76,0-1.16,0.02-2.081,0.12l-0.14-0.78
		c0.84,0.12,1.681,0.2,2.221,0.2h2.161v-0.64c0-0.1,0-0.2,0.02-0.26c0-0.12,0-0.16,0-0.16c0-0.12,0-0.32-0.02-0.68
		c0-0.2,0-0.5,0-0.92H10.95c-0.64,0.94-0.88,1.24-1.541,1.92l-0.22-0.16c1.121-1.88,1.581-2.98,1.96-4.781
		c1.2,0.28,1.741,0.5,1.741,0.66c0,0.14-0.24,0.26-0.78,0.38c-0.3,0.62-0.44,0.86-0.86,1.521H13.511z"/>
	<path class="st0" d="M9.71,139.149c0.56,0,1.66,0.52,2.22,1.061c0.32,0.32,0.44,0.52,0.44,0.8c0,0.26-0.1,0.38-1.16,1.24
		c-1.08,0.9-3.041,2.741-3.681,3.461c-0.7,0.78-0.96,1.24-0.96,1.621c0,0.28,0.2,0.64,0.601,1.04c0.28,0.3,0.28,0.3,1.4,1.32
		c2.181,2.021,3.201,3.141,3.681,4.081c0.22,0.42,0.3,0.78,0.3,1.32c0,0.76-0.26,1.201-0.68,1.201c-0.26,0-0.34-0.1-0.68-0.82
		c-0.36-0.78-0.98-1.84-1.68-2.821c-0.74-1.06-0.84-1.18-2.921-3.621c-0.54-0.66-0.76-1.14-0.76-1.681c0-0.64,0.32-1.18,1.54-2.68
		c2.42-2.941,3.021-3.781,3.021-4.261c0-0.34-0.26-0.64-1.101-1.18C9.43,139.169,9.53,139.149,9.71,139.149z"/>
	<path class="st0" d="M3.489,162.53c1.061,0.88,1.701,1.08,3.221,1.08c0.86,0,1.641-0.06,2.861-0.24
		c-0.08-3.061-0.22-3.341-1.74-3.561c0.28-0.28,0.44-0.32,1-0.32s1.22,0.1,1.68,0.26c0.48,0.16,0.68,0.36,0.68,0.66
		c0,0.12,0,0.12-0.26,0.68c-0.18,0.38-0.3,1.081-0.36,2.121c1.98-0.38,3.061-0.72,3.721-1.18c0.06-0.04,0.18-0.08,0.24-0.08
		c0.24,0,0.82,0.18,1.04,0.34c0.22,0.14,0.34,0.3,0.34,0.48c0,0.28-0.32,0.44-1.561,0.74c-1.36,0.32-2.621,0.561-3.821,0.7
		c-0.02,0.521-0.02,0.82-0.02,1.28c0,0.541,0,0.94,0.02,1.821c0.82-0.14,1.601-0.32,2.281-0.541c0.52-0.18,0.62-0.24,1-0.5
		c0.08-0.06,0.18-0.08,0.3-0.08c0.28,0,0.78,0.14,1.02,0.3c0.16,0.08,0.24,0.22,0.24,0.38c0,0.36-0.28,0.52-1.541,0.86
		c-1,0.26-2.3,0.5-3.261,0.58c0.04,0.78,0.04,1.1,0.06,1.8c0.04,0.76,0.06,1.061,0.12,1.561c1.84,0.34,3.601,1.02,4.401,1.72
		c0.38,0.34,0.58,0.8,0.58,1.32c0,0.42-0.18,0.7-0.44,0.7c-0.2,0-0.28-0.06-0.8-0.56c-0.34-0.32-1.1-0.9-1.68-1.24
		c-0.68-0.4-1.18-0.62-2-0.84c0.04,0.44,0.06,0.64,0.06,0.88c0,0.78-0.22,1.3-0.68,1.68c-0.56,0.46-1.601,0.74-2.681,0.74
		c-2,0-3.381-0.88-3.381-2.141c0-1.42,1.86-2.42,4.521-2.42c0.32,0,0.52,0,1,0.02c-0.02-0.96-0.02-1.1-0.02-1.38
		c0-0.06,0-0.2,0-0.32c0-0.48,0-0.76,0-0.92c0-0.08,0-0.28,0-0.5c-0.8,0.04-1.18,0.06-1.48,0.06c-1.3,0-2.181-0.14-2.661-0.44
		c-0.58-0.34-0.9-0.9-0.9-1.52c0-0.14,0.02-0.34,0.04-0.56l0.3,0.02c0.02,0.62,0.12,0.9,0.42,1.14c0.32,0.28,1.181,0.44,2.341,0.44
		c0.56,0,1.04-0.04,1.94-0.14c0-0.12,0-0.22,0-0.24v-1.16l-0.04-1.46v-0.24c-1.101,0.1-1.9,0.14-2.581,0.14
		c-1.9,0-2.721-0.38-3.721-1.72L3.489,162.53z M7.929,172.372c-0.78,0-1.56,0.14-2.18,0.38c-0.72,0.28-1.081,0.68-1.081,1.2
		c0,0.72,0.82,1.14,2.181,1.14c0.98,0,1.8-0.26,2.28-0.72c0.26-0.24,0.38-0.541,0.44-1.041c0.02-0.14,0.04-0.6,0.04-0.76
		c0-0.04,0-0.06,0-0.06C8.83,172.412,8.469,172.372,7.929,172.372z"/>
	<path class="st0" d="M2.368,183.43c0.28,0.26,0.5,0.34,0.9,0.34c0.56,0,1.06-0.1,5.561-1.18c0.72-0.18,1.86-0.44,3.241-0.7
		c1.4-0.28,2.101-0.46,2.701-0.66c0.4-0.12,0.54-0.16,0.7-0.16c0.24,0,0.68,0.18,1.08,0.42c0.4,0.24,0.58,0.5,0.58,0.76
		c0,0.3-0.24,0.5-0.62,0.5c-0.1,0-0.22,0-0.38-0.02c-0.24-0.04-0.34-0.04-0.561-0.04c-3.42,0-6.721,3.261-6.721,6.681
		c0,1.781,0.94,3.181,2.661,3.901c0.66,0.28,1.42,0.46,2.021,0.48c0.4,0,0.56,0.06,0.84,0.32c0.38,0.36,0.6,0.72,0.6,0.96
		c0,0.32-0.3,0.561-0.72,0.561c-1.16,0-2.96-0.64-4.081-1.44c-1.521-1.08-2.321-2.641-2.321-4.481c0-1.621,0.8-3.421,2.181-4.881
		c0.8-0.88,1.581-1.42,3.261-2.3c-2.48,0.3-7.062,1.661-8.942,2.681c-0.4,0.24-0.54,0.28-0.8,0.28c-0.48,0-1.08-0.46-1.54-1.18
		c-0.32-0.48-0.521-1.02-0.521-1.34c0-0.16,0.04-0.28,0.22-0.54C1.888,182.89,2.049,183.15,2.368,183.43z M14.251,185.231
		c0.74,0.42,1.28,0.8,1.781,1.24c0.72,0.66,1,1.12,1,1.6c0,0.48-0.28,0.84-0.62,0.84c-0.26,0-0.26,0-0.88-1.3
		c-0.36-0.7-1-1.58-1.54-2.121L14.251,185.231z M16.311,184.071c0.72,0.32,1.3,0.68,1.92,1.14c0.76,0.58,1.021,1,1.021,1.54
		c0,0.48-0.2,0.82-0.5,0.82c-0.18,0-0.3-0.1-0.46-0.38c-0.7-1.26-1.08-1.78-2.2-2.841L16.311,184.071z"/>
	<path class="st0" d="M6.209,207.991c-0.36,1.26-0.92,3.44-1.16,4.421c-0.2,0.88-0.26,1.2-0.26,1.7c-0.02,0.64-0.04,0.72-0.14,0.88
		c-0.1,0.14-0.22,0.22-0.38,0.22c-0.34,0-0.62-0.28-0.86-0.9c-0.4-1.021-0.64-2.541-0.64-4.021c0-1.84,0.22-3.521,0.9-6.662
		c0.26-1.24,0.3-1.46,0.3-1.8c0-0.6-0.16-1.08-0.581-1.76c0.46,0.02,0.84,0.28,1.4,1c0.46,0.58,0.72,1.141,0.72,1.521
		c0,0.22,0,0.22-0.32,0.88c-0.96,2-1.521,4.381-1.521,6.521c0,1.021,0.08,1.661,0.32,2.48l0.84-2l1.08-2.581L6.209,207.991z
		 M8.21,204.37c0.96,0.62,1.58,0.82,2.581,0.82c0.7,0,1.46-0.1,2.28-0.28c0-0.38,0-0.7,0-0.88c0-2.241-0.02-2.5-0.28-2.781
		c-0.24-0.26-0.68-0.4-1.32-0.46c0.28-0.26,0.44-0.32,0.96-0.32c0.44,0,0.98,0.08,1.36,0.18c0.58,0.18,0.88,0.42,0.88,0.72
		c0,0.14,0,0.16-0.18,0.62c-0.22,0.58-0.34,1.3-0.42,2.681c0.92-0.26,1.5-0.52,1.84-0.82c0.2-0.2,0.26-0.22,0.44-0.22
		c0.24,0,0.7,0.12,0.94,0.26c0.16,0.08,0.26,0.22,0.26,0.36c0,0.44-1.46,1.041-3.541,1.44c0,2.661,0.06,3.761,0.26,5.441
		c2.321,0.62,3.301,1.4,3.301,2.561c0,0.42-0.18,0.74-0.4,0.74c-0.16,0-0.3-0.1-0.7-0.5c-0.88-0.9-1.38-1.26-2.161-1.6
		c0.02,0.18,0.02,0.34,0.02,0.48c0,1.44-1.2,2.3-3.201,2.3c-1.74,0-2.96-0.84-2.96-2.04c0-1.38,1.48-2.261,3.761-2.261
		c0.38,0,0.66,0.02,1.22,0.06c0-0.18,0-0.3,0-0.34l-0.04-2.141l-0.02-2.561c-0.6,0.12-1.18,0.16-1.76,0.16
		c-1.46,0-2.3-0.36-3.301-1.4L8.21,204.37z M11.27,211.672c-1.58,0-2.561,0.52-2.561,1.4c0,0.7,0.78,1.18,1.96,1.18
		c1.1,0,1.88-0.32,2.201-0.94c0.2-0.36,0.26-0.66,0.26-1.4C12.571,211.752,12.01,211.672,11.27,211.672z"/>
	<path class="st0" d="M14.331,218.929c1.521,0.56,3.081,1.32,3.901,1.92c0.78,0.58,1.061,1.04,1.061,1.74
		c0,0.68-0.36,1.34-0.74,1.34c-0.04,0-0.18-0.06-0.26-0.12c-0.14-0.12-0.14-0.12-1.02-1.44c-0.68-1-1.76-2.12-3.081-3.181
		L14.331,218.929z"/>
</g>
<g>
</g>
<g>
</g>
<g>
</g>
<g>
</g>
<g>
</g>
<g>
</g>
<g>
</g>
<g>
</g>
<g>
</g>
<g>
</g>
<g>
</g>
<g>
</g>
<g>
</g>
<g>
</g>
<g>
</g>
</svg>
