<?xml version="1.0" encoding="utf-8"?>
<!-- Generator: Adobe Illustrator 25.4.1, SVG Export Plug-In . SVG Version: 6.00 Build 0)  -->
<svg version="1.1" id="レイヤー_1" xmlns="http://www.w3.org/2000/svg" xmlns:xlink="http://www.w3.org/1999/xlink" x="0px"
	 y="0px" width="20px" height="225px" viewBox="0 0 20 225" style="enable-background:new 0 0 20 225;" xml:space="preserve">
<style type="text/css">
	.st0{fill:#FFFFFF;}
</style>
<g>
	<path class="st0" d="M2.478,144.584c0.02,0.597,0.04,0.955,0.04,1.254c0,1.751-0.179,2.865-0.596,3.681
		c-0.22,0.418-0.478,0.677-0.697,0.677c-0.319,0-0.717-0.657-0.717-1.214c0-0.279,0.08-0.438,0.418-0.776
		c0.497-0.497,0.697-0.875,0.916-1.751c0.219-0.796,0.278-1.154,0.338-1.87H2.478z M0.867,157.697
		c1.293-1.771,1.83-2.905,2.308-4.875c0.438-1.711,0.597-3.661,0.597-7.044c0-3.044-0.04-4.617-0.14-5.671
		c1.771,0.239,2.329,0.398,2.329,0.617c0,0.179-0.08,0.219-0.856,0.537v4.278c0,1.493-0.139,3.861-0.319,5.194
		c-0.239,1.871-0.756,3.363-1.711,4.876c-0.537,0.835-0.935,1.293-2.03,2.248L0.867,157.697z M12.866,152.603l0.019,5.194
		c0,0.139-0.019,0.199-0.08,0.259c-0.119,0.06-0.517,0.119-0.995,0.119c-0.219,0-0.298-0.06-0.298-0.199
		c0-0.557,0-0.557,0.019-1.711c0.02-0.697,0.02-0.697,0.02-3.662v-1.492H8.846v4.477c0,0.099,0,0.477,0,0.915
		c-0.019,0.279-0.219,0.358-0.915,0.358c-0.298,0-0.378-0.04-0.378-0.219c0.019-1.114,0.019-1.453,0.019-2.328
		c0-2.189-0.019-3.662-0.04-4.517c0.637,0.338,0.816,0.458,1.353,0.855h2.667v-2.368H7.075c-0.04,0.916-0.139,1.353-0.438,1.95
		c-0.238,0.458-0.517,0.756-0.736,0.756c-0.318,0-0.577-0.477-0.577-1.074c0-0.239,0.04-0.319,0.319-0.538
		c0.239-0.199,0.558-0.617,0.757-1.035c0.158-0.358,0.278-0.816,0.338-1.413h0.338c0,0.358,0,0.657,0,0.896h9.651
		c0.357-0.378,0.458-0.497,0.835-0.876c0.617,0.477,0.816,0.637,1.393,1.154c0.159,0.159,0.199,0.219,0.199,0.299
		c0,0.119-0.06,0.139-0.955,0.398c-0.279,0.299-0.279,0.299-0.836,0.816c-0.398,0.378-0.398,0.378-0.596,0.577
		c0.278,0.199,0.418,0.279,0.796,0.557c0.139,0.08,0.199,0.139,0.199,0.219c0,0.08-0.239,0.258-0.697,0.537v1.91
		c0,0.119,0,0.517,0.019,1.055c0,0.179,0,0.478,0,0.856c-0.019,0.597-0.179,0.836-0.736,1.094c-0.318,0.159-0.657,0.239-1.333,0.378
		c-0.059-0.438-0.159-0.637-0.438-0.856c-0.219-0.179-0.477-0.259-1.274-0.438l0.02-0.299c1.433,0.119,1.433,0.119,2.209,0.119
		c0.198-0.02,0.238-0.06,0.238-0.299v-3.92h-2.905V152.603z M15.153,141.32c0.339-0.378,0.459-0.497,0.816-0.836
		c0.478,0.339,0.637,0.458,1.135,0.876c0.099,0.08,0.139,0.139,0.139,0.219c0,0.119-0.179,0.278-0.636,0.577v1.592
		c0,0.378,0,0.716,0.04,2.786c0,0.139-0.04,0.219-0.159,0.258c-0.1,0.04-0.717,0.1-0.955,0.1c-0.18,0-0.239-0.06-0.239-0.199v-0.478
		H8.707c-0.398,0-0.617,0.02-1.074,0.119l-0.119-0.796c0.756,0.199,0.935,0.219,1.293,0.219h6.487v-1.831H9.104
		c-0.338,0-0.577,0.02-1.114,0.1l-0.139-0.756c0.617,0.159,0.955,0.199,1.393,0.199h6.049v-1.692H8.787
		c-0.398,0-0.657,0.02-1.174,0.119l-0.159-0.776c0.697,0.159,0.955,0.199,1.453,0.199H15.153z M15.592,150.653
		c0.239-0.358,0.319-0.458,0.577-0.816l0.279,0.179c0.239-0.617,0.358-1.055,0.458-1.731h-4.039v2.368H15.592z"/>
	<path class="st0" d="M5.304,167.384c0.019-0.318,0.019-0.318,0.04-0.835c0.04-0.398,0.04-0.398,0.059-0.697
		c-0.596,0.398-1.651,1.114-2.01,1.373c-0.378,0.258-0.497,0.318-0.676,0.318c-0.518,0-1.473-1.174-1.473-1.811
		c0-0.04,0.02-0.199,0.06-0.339c0.437,0.637,0.875,0.955,1.293,0.955c0.398,0,1.691-0.537,2.866-1.194
		c0.099-0.836,0.139-1.393,0.139-2.109c0-1.154-0.179-1.492-1.134-2.209c0.119-0.08,0.158-0.1,0.258-0.1
		c0.319,0,0.756,0.199,1.274,0.537c0.636,0.438,1.035,0.935,1.035,1.313c0,0.219,0,0.219-0.199,0.816
		c-0.139,0.378-0.279,1.015-0.358,1.572c0.438,0.458,0.578,0.617,0.578,0.776c0,0.119-0.02,0.159-0.279,0.577
		c-0.239,0.438-0.438,0.816-0.637,1.293c-0.04,0.338-0.04,0.418-0.04,0.736c1.951-1.851,2.607-2.428,3.463-3.044
		c1.392-0.995,2.328-1.413,3.203-1.413c0.617,0,1.174,0.258,1.573,0.716c0.378,0.438,0.537,0.975,0.537,1.751
		c0,0.756-0.02,0.896-0.398,2.945c-0.239,1.293-0.358,2.448-0.358,3.264c0,0.796,0.14,1.214,0.497,1.473
		c0.279,0.199,0.637,0.298,1.015,0.298c0.995,0,2.388-0.517,3.701-1.412l0.159,0.238c-1.433,1.473-2.985,2.289-4.398,2.289
		c-1.513,0-2.329-0.975-2.329-2.786c0-0.716,0.18-1.99,0.497-3.542c0.459-2.129,0.497-2.408,0.497-3.144
		c0-0.975-0.437-1.532-1.213-1.532c-0.856,0-1.89,0.597-3.483,2.01c-1.035,0.915-1.97,1.89-3.024,3.144
		c-0.02,0.477-0.02,0.736-0.02,1.035c0,1.075,0.06,2.03,0.199,3.562c0.06,0.477,0.06,0.637,0.06,0.935
		c0,1.134-0.379,2.07-0.856,2.07c-0.22,0-0.378-0.159-0.478-0.537c-0.059-0.199-0.279-0.816-0.338-0.955
		c-0.219-0.398-0.856-1.214-1.752-2.169c-0.397,0.955-0.477,1.074-0.676,1.074c-0.18,0-0.338-0.159-0.458-0.458
		c-0.119-0.319-0.22-0.796-0.22-1.095c0-0.238,0.02-0.278,0.339-0.597c0.318-0.298,0.636-0.736,1.293-1.771L5.304,167.384z
		 M4.09,171.105c-0.458,0.876-0.676,1.313-1.054,2.109c1.174,0.975,1.532,1.254,2.109,1.612c0.04-0.756,0.04-0.756,0.059-3.722
		c0-0.975,0.02-1.432,0.08-2.248C5.006,169.434,4.985,169.434,4.09,171.105z"/>
	<path class="st0" d="M2.299,183.896c0.955,0.895,1.513,1.154,2.507,1.154c0.517,0,1.054-0.08,1.811-0.239
		c0.497-1.293,0.716-2.129,0.716-2.825c0-0.657-0.318-1.055-1.274-1.532c0.22-0.119,0.319-0.139,0.478-0.139
		c0.398,0,1.015,0.179,1.592,0.458c0.676,0.338,0.935,0.557,0.935,0.835c0,0.159-0.04,0.279-0.198,0.517
		c-0.08,0.159-0.498,0.975-1.214,2.448c1.473-0.518,1.651-0.617,2.209-1.095c0.159-0.139,0.219-0.159,0.418-0.159
		c0.776,0,1.353,0.258,1.353,0.597c0,0.517-1.234,1.015-4.398,1.751c-0.179,0.398-0.518,1.214-1.055,2.408
		c-0.596,1.373-2.129,4.716-2.308,5.054c-0.298,0.537-0.478,0.716-0.716,0.716c-0.339,0-0.617-0.617-0.617-1.413
		c0-0.398,0.04-0.517,0.219-0.716c0.438-0.477,0.676-0.776,0.955-1.194c0.975-1.452,1.691-2.806,2.488-4.676
		c-0.438,0.059-0.617,0.079-0.935,0.079c-0.717,0-1.254-0.119-1.752-0.418c-0.596-0.338-1.054-0.816-1.452-1.453L2.299,183.896z
		 M12.826,185.011c1.373,0.119,2.487,0.477,3.403,1.094c0.775,0.497,1.253,1.094,1.253,1.552c0,0.338-0.199,0.577-0.518,0.577
		c-0.158,0-0.278-0.04-0.458-0.159c-0.557-0.338-0.935-0.418-1.95-0.418c-1.592,0-2.09,0.438-2.09,1.811
		c0,0.537,0.099,1.393,0.398,3.423c1.213,0.358,2.248,0.835,2.825,1.293c0.538,0.418,0.797,0.935,0.797,1.572
		c0,0.398-0.159,0.677-0.398,0.677c-0.199,0-0.279-0.06-0.697-0.517c-0.716-0.776-1.373-1.254-2.407-1.751c0,0.159,0,0.298,0,0.378
		c0,0.796-0.159,1.254-0.558,1.691c-0.537,0.537-1.473,0.856-2.587,0.856c-1.79,0-3.024-0.856-3.024-2.109
		c0-1.393,1.513-2.368,3.721-2.368c0.458,0,0.676,0.02,1.194,0.1c-0.059-1.572-0.059-1.731-0.059-1.97
		c0-1.632,0.159-2.249,0.697-2.846c0.397-0.418,0.955-0.697,1.89-0.935c0.298-0.08,0.338-0.1,1.074-0.259
		c-0.537-0.577-1.154-0.895-2.568-1.373L12.826,185.011z M11.752,193.726c-0.617-0.179-1.074-0.238-1.712-0.238
		c-1.691,0-2.726,0.577-2.726,1.512c0,0.736,0.756,1.174,1.99,1.174c1.612,0,2.448-0.657,2.448-1.91V193.726z"/>
	<path class="st0" d="M8.806,208.388c-1.452,3.343-1.87,4.517-1.87,5.313c0,0.159,0,0.159,0.119,0.677
		c0.019,0.1,0.039,0.219,0.039,0.319c0,0.278-0.198,0.497-0.437,0.497c-0.558,0-1.572-0.776-2.189-1.692
		c-0.677-0.975-1.155-2.388-1.353-3.98c-0.119-0.876-0.14-1.373-0.14-3.503c-0.019-1.851-0.159-2.308-1.014-3.422
		c0.059,0,0.099,0,0.179,0c0.319,0,0.896,0.378,1.492,0.975c0.597,0.577,0.896,1.114,0.896,1.572c0,0.119-0.019,0.278-0.059,0.517
		c-0.239,1.214-0.358,2.149-0.358,2.965c0,1.074,0.159,2.07,0.458,2.886c0.298,0.816,0.537,1.174,1.035,1.552
		c0.219-0.318,0.219-0.318,0.657-1.055c0.637-1.075,0.637-1.075,1.672-2.806c0.319-0.517,0.319-0.517,0.577-0.955L8.806,208.388z
		 M13.044,204.786c2.507,0.557,4.498,3.204,4.498,5.95c0,0.955-0.398,1.572-0.996,1.572c-0.199,0-0.318-0.04-0.596-0.219
		c-0.259-0.179-0.637-0.239-1.493-0.239c-0.458,0-0.835,0-1.512,0.04l-0.06-0.299c1.612-0.438,2.507-0.697,2.687-0.756
		c0.397-0.139,0.458-0.219,0.458-0.597c0-0.736-0.279-1.891-0.617-2.607c-0.537-1.155-1.334-1.99-2.467-2.607L13.044,204.786z"/>
	<path class="st0" d="M19.114,222.433c0,1.412-1.154,2.567-2.568,2.567c-1.412,0-2.567-1.155-2.567-2.567
		c0-1.413,1.154-2.567,2.567-2.567C17.979,219.866,19.114,221,19.114,222.433z M14.616,222.433c0,1.055,0.876,1.93,1.93,1.93
		c1.074,0,1.93-0.856,1.93-1.93c0-1.075-0.856-1.93-1.93-1.93S14.616,221.358,14.616,222.433z"/>
</g>
<g>
</g>
<g>
</g>
<g>
</g>
<g>
</g>
<g>
</g>
<g>
</g>
<g>
</g>
<g>
</g>
<g>
</g>
<g>
</g>
<g>
</g>
<g>
</g>
<g>
</g>
<g>
</g>
<g>
</g>
</svg>
